<svg width="158.75012" height="132.29133" xmlns="http://www.w3.org/2000/svg" xmlns:xlink="http://www.w3.org/1999/xlink" version="1.1">
 <defs id="defs1">
  <mask maskUnits="userSpaceOnUse" id="mask1">
   <path id="path2" d="m30.91439,23.96805l0,17.4811l17.38964,0l0,-17.4811l-17.38964,0zm5.70973,2.30683c1.20057,0.02288 2.7742,0.35242 4.81211,1.26245c6.16212,2.75173 5.55677,7.81658 5.55677,7.81658l-1.01235,-0.0186l-0.77256,-0.10593l-0.40669,-0.11369l-0.83768,0.04858l-0.64234,-0.09767l-0.71571,-0.19482l-1.20355,-0.43099l-0.90278,-0.39067l-0.7891,-0.41444l-0.56896,-0.37414l-0.43925,-0.36587l-0.19534,-0.03256l-0.13022,-0.05684l-0.43099,-0.24443l-0.95136,-0.74776l-1.15445,-0.79737l-0.73225,-0.57722l-0.4067,-0.38241l-0.47129,-0.52865l-0.293,-0.43873l-0.41496,-0.71572l-0.37362,-0.71572c0,0 0.83502,-1.43372 3.47627,-1.38337l0,-0.00001z" fill="#ffffff" stroke-width="3.20649" stroke-linecap="round" stroke-linejoin="round"/>
  </mask>
  <filter id="filter3-4" x="-0.30452" y="-1.22864" width="1.60903" height="3.45728" color-interpolation-filters="sRGB">
   <feGaussianBlur stdDeviation="19.18418" id="feGaussianBlur3-8"/>
  </filter>
  <filter id="filter4" x="-0.53119" y="-0.58148" width="2.06237" height="2.16295" color-interpolation-filters="sRGB">
   <feGaussianBlur stdDeviation="7.53459" id="feGaussianBlur4"/>
  </filter>
  <filter id="filter5" x="-0.15772" y="-0.63635" width="1.31544" height="2.27271" color-interpolation-filters="sRGB">
   <feGaussianBlur stdDeviation="9.93616" id="feGaussianBlur5"/>
  </filter>
  <mask maskUnits="userSpaceOnUse" id="mask6">
   <path id="path6" d="m6.1532,-73.34224l0,169.21539l69.79055,0l0,-169.21539l-69.79055,0zm18.15984,15.27303c0.35607,-0.24244 41.66058,1.93909 41.66058,1.93909l5.78635,120.24506l-23.67892,13.0913l-2.85941,-4.8102l-1.98265,-5.22803l-1.18046,-5.74219l-0.56637,-3.17149l-0.26763,-1.75713l-0.34611,-2.61402l-0.34611,-3.17148l-0.45642,-4.02839l-0.29909,-4.67155l-0.34612,-7.32889l-0.06293,-5.82787l0.07884,-5.52845l0.23298,-9.96987l0.01131,-2.72764l0.01097,-1.99975l-0.94571,1.12071l-0.70107,0.45445l-0.66748,0.06066l-0.66783,0.06066l-1.17941,0.15212l-1.30172,-0.09147l-1.1239,-0.42364l-0.25596,-0.21278l-1.07935,0.15212l-0.81243,-0.4554l-1.00122,-0.72692l-0.89021,-0.9089l-0.80147,-0.90889l-0.55612,-0.69707l2.49245,-19.97056c0,0 -6.25345,-44.06117 -5.89737,-44.30359l-0.00001,0z" fill="#ffffff" stroke-width="2.56179" stroke-linecap="round" stroke-linejoin="round"/>
  </mask>
  <mask maskUnits="userSpaceOnUse" id="mask97">
   <path d="m36.14035,62.78184l2.04936,0.97589l1.56142,0.42288l6.0505,1.10601l2.37466,0.32529l3.77343,7.93722l-6.47339,4.52161l-12.00341,-1.30119c0,0 -2.5373,-8.75045 -2.37465,-8.94563c0.16264,-0.19517 5.04208,-5.04208 5.04208,-5.04208z" id="path98" fill="#ffffff" stroke-width="13.2427" stroke-linecap="round" stroke-linejoin="round"/>
  </mask>
  <linearGradient id="linearGradient48">
   <stop offset="0" id="stop48" stop-color="#00ff5b"/>
   <stop offset="1" id="stop49" stop-color="#00a65b"/>
  </linearGradient>
  <linearGradient xlink:href="#linearGradient48" id="linearGradient49" x1="0.68879" y1="-0.16449" x2="0.31835" y2="1.16427"/>
 </defs>
 <g>
  <title>Layer 1</title>
  <g id="layer1" display="none">
   <ellipse id="path3" cx="123.9771" cy="84.54263" rx="75.59865" ry="18.73701" transform="matrix(0.66989127,0.07706307,-0.07567001,0.84887322,25.856551,19.736112)" opacity="0.77473" fill="#000000" stroke-width="2.26907" stroke-linecap="round" stroke-linejoin="round" filter="url(#filter5)"/>
   <ellipse id="path3-4" cx="123.9771" cy="84.54263" rx="75.59865" ry="18.73701" transform="matrix(0.44083561,-0.02896799,0.02179854,0.33173081,-10.055384,63.920473)" opacity="0.77473" fill="#000000" stroke-width="2.26907" stroke-linecap="round" stroke-linejoin="round" filter="url(#filter3-4)"/>
   <path d="m30.61076,90.88836c4.02287,-1.17497 3.25715,-4.24667 7.35917,-5.028c1.01952,-0.19418 2.01271,-0.51446 3.03382,-0.70012c3.83941,-0.69807 7.7869,-1.01206 11.66861,-1.40023c1.84795,-0.48066 3.74001,-0.0642 5.60093,-0.23337c0.79005,-0.07183 1.54398,-0.39153 2.33372,-0.46675c1.62624,-0.1549 3.2672,0 4.9008,0c3.51832,0 6.97578,0.13265 10.50174,0.23338c3.03318,0.08666 6.07821,0.00067 9.1015,0.23337c2.42415,0.18646 4.80921,0.55745 7.23453,0.70012c1.32244,0.07777 2.64425,0.16722 3.96733,0.23337c0.93233,0.04662 1.86761,-0.03476 2.80046,0c2.3796,0.08868 5.68852,0.2252 9.12431,1.09835c3.37286,0.85717 4.99327,1.10638 7.08781,2.15321c2.21734,1.1082 5.25906,1.92555 5.44462,5.95907c0.15126,3.2881 -16.9063,0.28716 -19.23061,-0.09599c-4.79253,-1.2675 -5.83649,-1.30727 -10.55891,-5.21923c-1.74035,-1.44166 -2.13261,-2.58355 -2.36896,-4.82889c-0.28373,-2.69536 0.0356,-5.47812 -0.23338,-8.16801c0.16531,-0.91507 -0.35887,-1.70408 -0.46675,-2.5671c-0.28781,-2.30252 -0.31723,-4.70385 -0.70011,-7.00116c-0.45804,-2.74823 -1.54158,-9.90049 -1.79506,-12.68874c-0.056,-0.6161 0.07,-1.50525 0,-2.10035c-0.11056,-0.93988 -0.37257,-1.85879 -0.46675,-2.80046c-0.0619,-0.61924 0.0415,-1.24603 0,-1.86697c-0.12022,-1.80459 -0.32258,-3.83917 -0.7001,-5.60095c-0.25587,-1.19407 -0.23402,-2.68464 -0.59602,-3.84308c-2.60583,-8.33858 -0.38051,-5.80821 -3.60467,-9.69249c-5.36784,-6.46684 -8.73178,-8.01774 -18.9485,-9.77642c-4.37317,-0.75278 -11.22099,0.92338 -15.35717,2.54189c-5.1811,2.02739 -11.08009,9.3582 -13.3022,14.46906c-0.93981,2.16154 -1.32346,5.11895 -1.16687,7.4679c0.18222,2.73312 0.06937,0.98378 0.70013,3.03384c0.30523,0.99196 0.37191,2.04924 0.70011,3.03383c0.7272,2.18162 2.11724,4.79643 3.26721,6.76779c1.11458,1.91072 3.21667,2.89081 4.9008,4.2007c3.86023,3.00239 -1.28567,-0.77141 2.33373,1.40023c0.42712,0.25627 0.75879,0.64784 1.16685,0.93348c1.68069,1.17649 4.71857,2.45893 6.7678,2.80047c0.63741,0.10625 1.49094,-0.20313 2.10034,0c1.84196,0.61399 4.31554,0.23337 6.30104,0.23337c0.89887,0 1.68,-0.60083 2.56709,-0.93349c0.72212,-0.2708 1.56736,0.07316 2.33372,-0.23337c0.29779,-0.1191 0.70669,-0.46017 0.93349,-0.23337c0.28165,0.28164 -0.24911,10.73526 -0.30529,11.52188c-0.27601,3.86394 -0.1256,8.19508 0.93349,11.90197c1.41363,4.94771 1.39143,4.7286 3.77063,9.30251c4.18965,5.23416 11.88056,7.36061 19.42685,9.32153c6.20277,1.6118 4.07029,1.63678 12.95467,2.36901c3.45448,0.28471 6.58637,0.70011 10.03499,0.70011c5.83952,0.0775 12.37298,0.19725 17.78341,-1.68402c10.55592,-2.42869 12.66053,-9.53245 8.09452,-20.83351c-0.55515,-1.2689 -1.71563,-2.24544 -2.5671,-3.26721c-1.13115,-1.35738 -2.04442,-1.99307 -3.50058,-3.2672c-0.49676,-0.43467 -0.87217,-1.00419 -1.40023,-1.40024c-0.41747,-0.3131 -0.96604,-0.41065 -1.40023,-0.70012c-0.27462,-0.18305 -0.42551,-0.51704 -0.70011,-0.70011c-0.40937,-0.27291 -0.95234,-0.26315 -1.40024,-0.46674c-0.63341,-0.28791 -1.21409,-0.69295 -1.86697,-0.93349c-2.19683,-0.80935 -4.55821,-0.89708 -6.7678,-1.6336c-0.56203,-0.18736 -1.06116,-0.54747 -1.6336,-0.70012c-1.5201,-0.40536 -3.10475,-0.51832 -4.66743,-0.70012c-1.88623,-0.21943 -17.19493,-1.906 -19.32301,-1.97609c-1.46678,-0.04833 -2.97075,-0.10455 -4.43406,0c-2.80664,0.20046 -5.6098,0.42095 -8.4014,0.70011c-1.82381,0.18237 -3.77185,0 -5.60092,0c-4.9562,0 -9.98618,-0.24747 -14.93581,0c-4.90874,0.24543 -9.78952,0.96215 -14.70243,1.16686c-2.43761,0.10156 -5.04104,-0.28552 -7.4679,0c-0.63709,0.07495 -1.23526,0.35526 -1.86698,0.46674c-4.94807,0.87319 0.57347,-0.27117 -3.96733,0.23338c-1.83412,0.20378 -2.47669,0.58869 -4.20069,0.93348c-0.53938,0.10789 -1.10212,0.09165 -1.6336,0.23338c-3.14079,0.83755 -5.90502,2.63782 -8.16801,4.90081c-1.65865,1.43286 -2.23842,1.63389 -2.16038,3.66374c0.01265,0.3298 0.60148,8.45055 2.16038,7.16037c0.8039,-0.66533 -1.06736,5.76479 -0.08481,6.50171c1.59561,1.3966 5.38822,-0.39755 9.71106,-0.20801l3.55131,-4.6219z" id="path46" fill="url(#linearGradient49)" stroke-width="5.0772" stroke-linecap="round" stroke-linejoin="round"/>
   <path d="m65.40586,70.09574c-4.94353,0.19585 -11.75942,0.41092 -16.67233,0.61562c-2.43761,0.10157 -9.03683,0.62781 -11.4637,0.91333c-0.63709,0.07495 -1.23525,0.35526 -1.86697,0.46674c-4.94807,0.87319 0.66547,0.6489 -3.87533,1.15345c-1.83412,0.20378 -3.8568,1.69278 -5.5808,2.03758c-0.53938,0.10788 -2.94227,1.83979 -3.47375,1.98151c-2.54274,2.03364 -1.67268,1.53373 -3.93567,3.79672c-1.65864,1.43286 -2.23653,3.50951 -2.97649,5.40129c-0.63794,1.63097 -0.4751,2.45531 -0.41256,5.71926c0.01999,1.04331 0.65169,3.0146 1.63424,3.75152c1.59561,1.39661 3.85838,1.77173 8.18122,1.96127l4.20731,-4.0429c2.18272,-4.48725 4.6969,-7.2094 8.79892,-7.99074c1.01952,-0.19418 2.01271,-0.51446 3.03383,-0.70012c3.8394,-0.69807 7.78689,-1.01206 11.6686,-1.40023c1.84795,-0.48065 3.74001,-0.0642 5.60093,-0.23337c0.79005,-0.07183 4.16979,-0.39153 4.95953,-0.46675m27.0007,1.0527c1.32244,0.07777 4.75631,0.28137 6.07939,0.34754c0.93233,0.04662 1.86761,-0.03476 2.80046,0c2.3796,0.08868 5.68852,0.22519 9.12431,1.09835c3.37285,0.85717 4.99326,1.10637 7.08781,2.1532c2.21734,1.1082 5.25906,1.92556 5.44461,5.95908c0.15126,3.2881 -16.90629,0.28716 -19.2306,-0.09603c-4.79253,-1.26751 -5.83649,-1.30727 -10.55891,-5.21923c-1.74034,-1.44167 -2.93311,-3.96443 -3.82205,-6.0398c-1.29281,-3.01828 -1.70003,-4.79194 -2.21118,-7.5222c-0.35944,-3.29652 0.0198,-5.49259 -0.0226,-6.36127c-0.28781,-5.85452 0.57077,-6.80277 0.18789,-9.10007c-0.45804,-2.74824 0.19405,-3.48267 -0.0594,-6.27093c-0.056,-0.6161 0.43326,-1.46488 0.36327,-2.05998c-0.11056,-0.93988 -0.37257,-1.8588 -0.46675,-2.80046c-0.0619,-0.61924 0.0415,-1.24603 0,-1.86698c-0.12024,-1.80456 -0.32258,-3.83914 -0.70011,-5.60092c-0.25586,-1.19407 -0.23402,-2.68464 -0.59602,-3.84308c-2.60595,-8.33857 -0.38063,-5.8082 -3.60479,-9.69247c-5.36789,-6.46685 -8.73184,-8.01774 -18.94856,-9.77642c-4.37316,-0.75278 -11.22099,0.92338 -15.35717,2.54189c-5.18109,2.02738 -11.08009,9.3582 -13.3022,14.46906c-0.93981,2.16154 -1.32346,5.11895 -1.16687,7.4679c0.18222,2.73312 0.06938,0.98378 0.70013,3.03384c0.30522,0.99195 0.37191,2.04923 0.70011,3.03383c0.7272,2.18161 2.11724,4.79643 3.26721,6.76779c1.11458,1.91071 3.21667,2.8908 4.9008,4.20069c3.86022,3.0024 -1.28567,-0.77141 2.33373,1.40023c0.42712,0.25627 0.75879,0.64785 1.16685,0.93349c1.68069,1.17649 4.71857,2.45893 6.7678,2.80046c0.63741,0.10626 1.49094,-0.20313 2.10034,0c1.84196,0.61399 4.31554,0.23338 6.30104,0.23338c0.89887,0 1.68,-0.60083 2.5671,-0.93349c0.72211,-0.2708 1.56735,0.07316 2.33371,-0.23338c0.29779,-0.11913 0.70669,-0.46016 0.93349,-0.23337c0.28164,0.28165 -0.24912,10.73527 -0.30529,11.52188c-0.27601,3.86394 -0.1256,8.19509 0.93349,11.90197c1.41363,4.94771 1.39143,4.7286 3.77063,9.30252c4.18964,5.23416 11.88056,7.36061 19.42685,9.32153c6.20276,1.6118 4.07028,1.63678 12.95466,2.369c3.45448,0.28472 6.58638,0.70012 10.03499,0.70012c5.83952,0.0775 12.37298,0.19724 17.78341,-1.68402c10.55593,-2.42869 12.66053,-9.53245 8.09452,-20.83352c-0.55515,-1.26889 -1.71563,-2.24544 -2.5671,-3.2672c-1.13115,-1.35738 -2.04443,-1.99308 -3.50058,-3.26721c-0.49676,-0.43466 -0.87217,-1.00418 -1.40024,-1.40023c-0.41746,-0.31311 -0.96603,-0.41066 -1.40022,-0.70012c-0.27462,-0.18306 -0.42551,-0.51704 -0.70011,-0.70011c-0.40937,-0.27291 -0.95234,-0.26315 -1.40024,-0.46675c-0.63341,-0.2879 -1.21409,-0.69295 -1.86697,-0.93349c-2.19683,-0.80935 -4.55821,-0.89708 -6.7678,-1.6336c-0.56203,-0.18736 -1.06116,-0.54747 -1.6336,-0.70012c-1.5201,-0.40535 -3.10475,-0.51832 -4.66743,-0.70011c-1.88623,-0.21943 -17.19492,-1.90601 -19.323,-1.9761c-1.46678,-0.04831 -3.54158,-0.10455 -5.0049,0" id="path46-4" fill="none" stroke="#004f1c" stroke-width="5.63512" stroke-linecap="round" stroke-linejoin="round"/>
   <circle id="path59" cx="43.21977" cy="46.95591" r="3.91243" fill="#000000" stroke-width="1.65453" stroke-linecap="round" stroke-linejoin="round"/>
   <circle id="path59-1" cx="71.39146" cy="46.89754" r="3.91243" fill="#000000" stroke-width="1.65453" stroke-linecap="round" stroke-linejoin="round"/>
   <ellipse id="path4" cx="33.21468" cy="32.47862" rx="17.02138" ry="15.54926" transform="matrix(1.4616933,0,0,0.53672635,4.5384163,61.614865)" mask="url(#mask6)" opacity="0.51294" fill="#000000" stroke-width="2.26907" stroke-linecap="round" stroke-linejoin="round" filter="url(#filter4)"/>
   <path d="m41.12015,60.44622c-0.10244,0.39937 -0.49487,1.91537 -0.75268,2.96785c-0.14718,0.60086 -0.34426,1.42546 -0.53309,2.31183c-0.11249,0.52807 -0.23586,1.14209 -0.35192,1.80406c-0.01793,0.10226 -0.03613,0.20825 -0.05446,0.3176c-0.04432,0.26447 -0.09523,0.58374 -0.14616,0.94023c-0.01652,0.11638 -0.02211,0.22101 -0.02362,0.31046c-0.00149,0.09871 0.00162,0.18927 0.0065,0.27201c0.00598,0.09849 0.01441,0.19145 0.02381,0.27953c0.01213,0.11307 0.0258,0.22126 0.03921,0.32503c0.01989,0.15372 0.03829,0.29041 0.05269,0.42364c0.00808,0.07527 0.01424,0.14291 0.01787,0.2052c0.00246,0.04462 0.00351,0.07931 0.00316,0.10678c-0.00025,0.01942 -0.00127,0.02835 -0.00083,0.02429c0.00042,-0.00387 0.00246,-0.02622 0.01406,-0.06977c0.00914,-0.03429 0.03111,-0.10773 0.0801,-0.19839c0.03754,-0.06935 0.09808,-0.16279 0.19342,-0.25808c-0.12696,0.12697 -0.26456,0.25405 -0.4151,0.38558c-0.18216,0.15915 -0.37333,0.31632 -0.5849,0.48805c-0.22576,0.18323 -0.48826,0.3938 -0.73945,0.60668c-0.18852,0.15977 -0.3848,0.33259 -0.57974,0.51849c-0.1249,0.11908 -0.25078,0.24502 -0.37531,0.378c-0.01371,0.01441 -0.03327,0.03455 -0.06269,0.06427c-0.042,0.04235 -0.1116,0.11158 -0.15432,0.15467c-0.06898,0.06937 -0.14743,0.1491 -0.2272,0.23442c-0.05153,0.05518 -0.10949,0.11889 -0.16924,0.18938c-0.04119,0.04866 -0.09016,0.10859 -0.14101,0.17766c-0.03631,0.04942 -0.08453,0.11801 -0.13377,0.20168c-0.03553,0.06075 -0.09815,0.17279 -0.14996,0.32018c-0.03153,0.09137 -0.09622,0.2946 -0.09012,0.55886c0.00264,0.1126 0.0181,0.23989 0.05636,0.37517c0.03829,0.13543 0.1016,0.28598 0.20303,0.43461l-0.00668,-0.00984c0.10395,0.15506 0.22476,0.27229 0.3389,0.35867c0.11304,0.08555 0.22576,0.14569 0.32646,0.18799c0.24502,0.10255 0.45742,0.11685 0.54158,0.12087c0.04629,0.00193 0.14992,0.0058 0.27846,-0.01037c0.18811,-0.0229 0.33809,-0.07743 0.40387,-0.10255c0.14353,-0.05571 0.25208,-0.11509 0.31563,-0.15124c0.09994,-0.05724 0.18397,-0.11251 0.2507,-0.1582c0.08726,-0.05988 0.16676,-0.11854 0.23809,-0.17288c0.10193,-0.07771 0.19811,-0.15495 0.28829,-0.22924c0.12446,-0.10256 0.24428,-0.20516 0.35946,-0.3057c0.19379,-0.1692 0.38189,-0.33939 0.56276,-0.5044c0.07068,-0.06446 0.13421,-0.12263 0.20071,-0.183c0.03453,-0.03132 0.06267,-0.05671 0.08951,-0.08033c0.02369,-0.0207 0.01459,-0.01248 0.00128,-0.00193c-0.00475,0.00369 -0.00931,0.00738 -0.01424,0.0109c0.05812,-0.04467 0.11395,-0.08952 0.16753,-0.13402c0.11885,-0.09871 0.22866,-0.1972 0.32728,-0.28811c0.12796,-0.11801 0.26135,-0.24604 0.36698,-0.34595c0.11061,-0.1046 0.20778,-0.19481 0.30278,-0.27736c0.07601,-0.06604 0.14448,-0.12175 0.20869,-0.1694c0.05782,-0.0429 0.10794,-0.07599 0.15189,-0.10156c0.01898,-0.01107 0.03626,-0.02033 0.05183,-0.02814l-0.93426,0.11051c0.00162,0.00037 0.00316,0.00072 0.00457,0.00109l-0.06724,-0.01757c0.00162,0.00046 0.00316,0.00091 0.00475,0.00139l-0.06067,-0.01884c0.00162,0.00054 0.00334,0.00111 0.00492,0.00162l-0.05467,-0.01956c0.00172,0.00065 0.00334,0.00127 0.0051,0.00193l-0.0493,-0.01981c0.00174,0.00074 0.00351,0.00149 0.00527,0.00211l-0.02617,-0.01142c-0.10376,-0.0464 -0.17411,-0.09529 -0.19521,-0.11017c-0.06209,-0.0442 -0.08371,-0.06713 -0.08084,-0.06437c-0.00387,-0.00351 0.0123,0.01265 0.04079,0.04559c0.04077,0.04734 0.08608,0.10397 0.1384,0.17195c0.06193,0.08058 0.12451,0.16555 0.18824,0.25395c0.08942,0.12414 0.17799,0.25096 0.26563,0.37825c0.13138,0.19093 0.26154,0.38435 0.38862,0.57443c0.13249,0.19818 0.30523,0.45869 0.43774,0.65689c0.09369,0.14019 0.1849,0.27604 0.27797,0.41217c0.06618,0.09669 0.13221,0.19205 0.20059,0.28774c0.05673,0.07921 0.11929,0.16507 0.18899,0.25367c0.03882,0.0491 0.09369,0.11729 0.16193,0.1905c0.01722,0.01831 0.0329,0.03466 0.04977,0.05154a1.43553,1.43553 0 0 0 2.03029,-2.03001c0.00756,0.00756 0.01371,0.01388 0.01787,0.01844c0.01388,0.01494 0.01564,0.01836 -0.00562,-0.00861c-0.02786,-0.03543 -0.06142,-0.08086 -0.10812,-0.14604c-0.05183,-0.07253 -0.10578,-0.15029 -0.16601,-0.23831c-0.08411,-0.123 -0.16862,-0.24885 -0.26036,-0.38614c-0.16395,-0.24542 -0.27416,-0.41197 -0.43825,-0.65764c-0.12975,-0.19407 -0.26815,-0.39981 -0.41044,-0.60659c-0.09469,-0.13754 -0.19565,-0.28221 -0.3012,-0.42874c-0.07451,-0.10339 -0.15551,-0.21363 -0.2418,-0.32591c-0.069,-0.08965 -0.14996,-0.19214 -0.24066,-0.29742c-0.05599,-0.06476 -0.13339,-0.15179 -0.22741,-0.24226c-0.04866,-0.0465 -0.13358,-0.12555 -0.246,-0.20562c-0.05527,-0.03901 -0.15615,-0.1072 -0.29282,-0.16831c-0.00861,-0.00387 -0.0174,-0.00756 -0.02617,-0.01142c-0.00172,-0.00072 -0.00351,-0.00149 -0.00527,-0.00211c-0.01634,-0.00685 -0.03274,-0.01353 -0.0493,-0.01981c-0.00162,-0.00063 -0.00334,-0.00127 -0.0051,-0.00193c-0.01808,-0.00685 -0.03633,-0.01336 -0.05467,-0.01956c-0.00162,-0.00054 -0.00316,-0.00109 -0.00492,-0.00162c-0.02007,-0.00668 -0.0403,-0.013 -0.06067,-0.01884c-0.00162,-0.00044 -0.00316,-0.0009 -0.00475,-0.00137c-0.02227,-0.00633 -0.04469,-0.0123 -0.06724,-0.01757c-0.00149,-0.00037 -0.00316,-0.00074 -0.00457,-0.00111c-0.16919,-0.03972 -0.3431,-0.07241 -0.51577,-0.05255c-0.17265,0.01988 -0.33451,0.09147 -0.48995,0.1692c-0.07367,0.03684 -0.14435,0.07531 -0.21201,0.11467c-0.15304,0.08907 -0.29238,0.18376 -0.41818,0.27704c-0.13891,0.10305 -0.26607,0.20795 -0.38136,0.30813c-0.14189,0.1233 -0.27428,0.2469 -0.39227,0.35848c-0.12915,0.12212 -0.23015,0.21943 -0.34062,0.32131c-0.07833,0.07221 -0.14854,0.13465 -0.21544,0.19022c-0.0287,0.02385 -0.05636,0.04597 -0.08313,0.06657c-0.00475,0.00369 -0.00949,0.00721 -0.01424,0.0109c-0.05492,0.04332 -0.10376,0.08661 -0.1165,0.09775c-0.04777,0.04204 -0.08993,0.08019 -0.12495,0.11195c-0.07003,0.06355 -0.14191,0.12936 -0.20644,0.18822c-0.17637,0.16091 -0.34633,0.31452 -0.51629,0.46292c-0.10119,0.08833 -0.19954,0.1724 -0.2969,0.25266c-0.07107,0.05854 -0.13801,0.11209 -0.20277,0.16145c-0.04596,0.03501 -0.08562,0.06395 -0.12133,0.08847c-0.02982,0.02042 -0.04492,0.02954 -0.05086,0.03295c-0.00492,0.00281 0.01764,-0.01195 0.07624,-0.03476c0.02698,-0.01037 0.12921,-0.0497 0.27437,-0.06738c0.10219,-0.013 0.18567,-0.00931 0.20555,-0.00844c0.05371,0.00246 0.22889,0.01195 0.43797,0.09947c0.09109,0.03826 0.19279,0.09232 0.29595,0.17036c0.10406,0.07875 0.21588,0.18685 0.31278,0.3312c0.09109,0.13578 0.14776,0.27201 0.18209,0.39334c0.03504,0.12388 0.04891,0.23931 0.05125,0.33969c0.00527,0.23057 -0.051,0.40023 -0.06873,0.45166c-0.03785,0.10778 -0.07699,0.17476 -0.08509,0.18861c-0.02019,0.03432 -0.03051,0.04768 -0.02982,0.04675c-0.00127,0.00174 0.00527,-0.00685 0.01912,-0.0233c0.01938,-0.02288 0.04408,-0.05042 0.0762,-0.08481c0.04889,-0.0523 0.10283,-0.10738 0.16527,-0.17017c0.06534,-0.06573 0.09251,-0.09251 0.15776,-0.15815c0.03286,-0.0332 0.07357,-0.07448 0.11608,-0.11961c0.08587,-0.09167 0.17302,-0.17906 0.26386,-0.26569c0.14261,-0.13599 0.29438,-0.2702 0.45466,-0.40602c0.22094,-0.18725 0.44816,-0.36943 0.69258,-0.56782c0.21639,-0.17564 0.4412,-0.35997 0.66457,-0.55513c0.18706,-0.16344 0.37373,-0.33502 0.55599,-0.51728c0.13945,-0.13938 0.23592,-0.2843 0.30208,-0.40654c0.08947,-0.16555 0.1395,-0.31837 0.16917,-0.42967c0.03654,-0.1378 0.05478,-0.25987 0.06515,-0.35373c0.01248,-0.11421 0.0167,-0.21678 0.01784,-0.30155c0.00149,-0.11525 -0.00246,-0.22068 -0.00773,-0.31062c-0.00738,-0.12655 -0.01863,-0.24458 -0.02961,-0.34647c-0.01865,-0.17244 -0.04274,-0.35178 -0.05982,-0.48373c-0.013,-0.10117 -0.02327,-0.18244 -0.03165,-0.26094c-0.00633,-0.06033 -0.01037,-0.10632 -0.01265,-0.1452c-0.00193,-0.03269 -0.00193,-0.04896 -0.00193,-0.05538c0.00009,-0.00562 0.00014,0.01353 -0.00457,0.04738c0.04684,-0.32779 0.094,-0.62376 0.13532,-0.87036c0.01705,-0.10186 0.03406,-0.20077 0.05082,-0.29634c0.10859,-0.61937 0.22477,-1.19815 0.33203,-1.70163c0.18019,-0.84577 0.36958,-1.63879 0.51367,-2.22696c0.25287,-1.03236 0.63854,-2.52226 0.74506,-2.93752a1.43553,1.43553 0 0 0 -2.78102,-0.7134l0.00009,0.00054l-0.00002,-0.00001z" id="path-1" mask="url(#mask1)" fill="none" fill-rule="nonzero" stroke="#f51200" stroke-width="1.78609" stroke-linecap="round" stroke-linejoin="round"/>
  </g>
  <path d="m270.25842,145.6879l125.18807,137.70687" id="path77" fill="#ff0000" stroke-width="4.413" stroke-linecap="round" stroke-linejoin="round"/>
  <path d="m37.85268,73.14065c0.0027,-0.0021 0.0057,-0.0044 0.0091,-0.007c0.0072,-0.0056 0.01432,-0.01114 0.02143,-0.01677c0.0029,-0.0023 0.0061,-0.0048 0.0095,-0.0075c0.0064,-0.005 0.0127,-0.0101 0.01901,-0.0152c0.0031,-0.0025 0.0064,-0.0052 0.0099,-0.008c0.0057,-0.0046 0.01133,-0.0092 0.01696,-0.01382c0.0033,-0.0027 0.0067,-0.0055 0.01031,-0.0085c0.0051,-0.0042 0.01016,-0.0084 0.01522,-0.01262c0.0034,-0.0029 0.007,-0.0059 0.01071,-0.009c0.0046,-0.0038 0.0092,-0.0077 0.01373,-0.01156c0.0036,-0.003 0.0073,-0.0062 0.0111,-0.0094c0.0042,-0.0035 0.0083,-0.0071 0.01244,-0.01062c0.0037,-0.0032 0.0076,-0.0065 0.0115,-0.0099c0.0038,-0.0032 0.0076,-0.0065 0.01132,-0.0098c0.0039,-0.0034 0.0078,-0.0068 0.01188,-0.01034c0.0035,-0.003 0.0069,-0.006 0.01033,-0.009c0.004,-0.0035 0.0081,-0.0071 0.01227,-0.0108c0.0032,-0.0028 0.0063,-0.0056 0.0095,-0.0084c0.0041,-0.0037 0.0084,-0.0074 0.01265,-0.01125c0.0029,-0.0026 0.0058,-0.0052 0.0087,-0.0078c0.0043,-0.0038 0.0086,-0.0077 0.01303,-0.01169c0.0027,-0.0024 0.0054,-0.0048 0.008,-0.0072c0.0044,-0.004 0.0089,-0.008 0.01341,-0.01214c0.0025,-0.0022 0.005,-0.0045 0.0074,-0.0067c0.0045,-0.0041 0.0091,-0.0083 0.01378,-0.01258c0.01153,-0.01058 0.01624,-0.01491 0.02103,-0.01931c0.02264,-0.02089 0.04142,-0.0384 0.05974,-0.0556c0.00001,-0.00001 0.0054,-0.0051 0.0054,-0.0051c0.0812,-0.07642 0.15791,-0.15099 0.23138,-0.22336c0.12755,-0.12573 0.25092,-0.25034 0.37423,-0.37598c0.17061,-0.17395 0.33888,-0.34778 0.51157,-0.52694c0.19021,-0.19738 0.37755,-0.39277 0.57363,-0.59733c0.26472,-0.2762 0.54288,-0.56658 0.81673,-0.85092c0.26367,-0.27378 0.53404,-0.55318 0.80699,-0.8321c0.20388,-0.20832 0.41177,-0.41903 0.62204,-0.62912c0.19066,-0.19046 0.38355,-0.38074 0.57805,-0.56827c0.10879,-0.10487 0.21821,-0.20897 0.32801,-0.31136c0.0079,-0.0073 0.01742,-0.01621 0.0271,-0.02523c0.0063,-0.0059 0.01581,-0.01466 0.02542,-0.02358c0.0062,-0.0057 0.0156,-0.01441 0.02513,-0.02322c0.006,-0.0055 0.01537,-0.01415 0.02483,-0.02286c0.0058,-0.0054 0.01514,-0.01389 0.02452,-0.0225c0.0057,-0.0052 0.0149,-0.01361 0.0242,-0.02212c0.0055,-0.005 0.01465,-0.01333 0.02388,-0.02174c0.0053,-0.0048 0.01439,-0.01305 0.02354,-0.02135c0.0051,-0.0046 0.01413,-0.01276 0.0232,-0.02095c0.0049,-0.0044 0.01386,-0.01245 0.02285,-0.02054c0.0047,-0.0042 0.01358,-0.01215 0.02249,-0.02013c0.0045,-0.004 0.01328,-0.01183 0.02212,-0.01971c0.0043,-0.0038 0.01298,-0.01151 0.02174,-0.01927c0.004,-0.0036 0.01267,-0.01118 0.02134,-0.01883c0.0038,-0.0033 0.01235,-0.01084 0.02094,-0.01838c0.0036,-0.0031 0.01202,-0.01049 0.02052,-0.01792c0.0033,-0.0029 0.01168,-0.01014 0.0201,-0.01745c0.003,-0.0026 0.01132,-0.0098 0.01966,-0.01697c0.0027,-0.0023 0.01095,-0.0094 0.0192,-0.01648c0.0024,-0.0021 0.01057,-0.009 0.01873,-0.01598c0.0021,-0.0018 0.01018,-0.0086 0.01825,-0.01547c0.0018,-0.0015 0.0098,-0.0082 0.01774,-0.01494c0.0015,-0.0012 0.0093,-0.0078 0.01723,-0.0144c0.0011,-0.0009 0.0089,-0.0074 0.01669,-0.01385c0.00074,-0.00058 0.0084,-0.0069 0.01613,-0.01329c0.00035,-0.00025 0.0079,-0.0065 0.01555,-0.01271c-0.0014,0.0011 0.0048,-0.0039 0.011,-0.0089c0.0021,-0.0017 0.0081,-0.0065 0.01414,-0.01139c0.0017,-0.0014 0.0076,-0.0061 0.01347,-0.01076c0.0014,-0.0011 0.0071,-0.0056 0.01278,-0.01011c0.00098,-0.00076 0.0065,-0.0051 0.01205,-0.0094c0.00058,-0.00044 0.0059,-0.0046 0.01129,-0.0088c0.00015,-0.00011 0.0053,-0.0041 0.01049,-0.0081c-0.0003,0.00023 0.0047,-0.0036 0.0097,-0.0073c-0.00078,0.00059 0.004,-0.003 0.0088,-0.0066c-0.0013,0.00096 0.0033,-0.0024 0.0078,-0.0058c-0.0018,0.0013 0.0025,-0.0018 0.0069,-0.005c-0.0024,0.0017 0.0017,-0.0012 0.0058,-0.0042c-0.003,0.0022 0.00083,-0.00059 0.0047,-0.0033c-0.0037,0.0026 -0.00009,0.00007 0.0035,-0.0025c-0.0044,0.0031 -0.0011,0.00075 0.0023,-0.0016c-0.0052,0.0035 -0.0021,0.0015 0.00091,-0.00061c-0.006,0.004 -0.0033,0.0022 -0.00053,0.00035c-0.007,0.0045 -0.0045,0.003 -0.0021,0.0014c-0.0079,0.0051 -0.0059,0.0037 -0.0038,0.0024c-0.009,0.0056 -0.0073,0.0046 -0.0056,0.0035c-0.01019,0.0062 -0.0089,0.0054 -0.0076,0.0046c-0.01149,0.0068 -0.0106,0.0063 -0.0097,0.0058c-0.0129,0.0075 -0.01249,0.0072 -0.01208,0.007c0.00026,-0.00014 0.00052,-0.00029 0.00078,-0.00043l-0.03099,0.01706c0.0049,-0.0027 0.0099,-0.0053 0.0148,-0.008l-0.03362,0.01787c0.0048,-0.0025 0.0096,-0.005 0.01444,-0.0075l-0.03655,0.01869c0.0047,-0.0024 0.0094,-0.0047 0.01407,-0.007l-0.03985,0.01951c0.0046,-0.0022 0.0091,-0.0044 0.0137,-0.0066l-0.04356,0.02034c0.0045,-0.002 0.0089,-0.004 0.01333,-0.0061l-0.04776,0.02113c0.0043,-0.0019 0.0086,-0.0037 0.01295,-0.0056l-0.0525,0.02187c0.0042,-0.0017 0.0084,-0.0034 0.01257,-0.0051l-0.05789,0.0225c0.0041,-0.0015 0.0081,-0.003 0.01219,-0.0046l-0.06401,0.02297c0.0039,-0.0014 0.0079,-0.0027 0.0118,-0.0041l-0.07097,0.02319c0.0038,-0.0012 0.0076,-0.0024 0.01141,-0.0035l-0.07889,0.02305c0.0037,-0.001 0.0074,-0.002 0.01102,-0.003l-0.08789,0.02239c0.0036,-0.00084 0.0071,-0.0017 0.01063,-0.0025l-0.09809,0.02095c0.0034,-0.00066 0.0068,-0.0013 0.01023,-0.002l-0.10958,0.01863c0.0033,-0.00049 0.0066,-0.00097 0.0098,-0.0014l-0.12242,0.01491c0.0032,-0.00031 0.0063,-0.00061 0.0094,-0.00092l-0.13656,0.0094c0.003,-0.00012 0.006,-0.00024 0.009,-0.00037l-0.15182,0.0016c0.0029,0.00006 0.0057,0.00012 0.0086,0.00017l-0.16778,-0.009c0.0027,0.00024 0.0055,0.00048 0.0082,0.00072l-0.1837,-0.02304c0.0026,0.00043 0.0052,0.00085 0.0078,0.0013l-0.19847,-0.04082c0.0025,0.00061 0.0049,0.0012 0.0073,0.0018l-0.2106,-0.06235c0.0023,0.0008 0.0046,0.0016 0.0069,0.0024l-0.2183,-0.08704c0.0022,0.00099 0.0043,0.002 0.0065,0.0029l-0.21989,-0.11351c0.002,0.0012 0.004,0.0024 0.006,0.0035l-0.21418,-0.13967c0.0019,0.0014 0.0038,0.0027 0.0056,0.0041l-0.20091,-0.16298c0.0017,0.0016 0.0035,0.0031 0.0052,0.0047l-0.09651,-0.0918c-0.14364,-0.14416 -0.23648,-0.27463 -0.2795,-0.3379c-0.09169,-0.1358 -0.14408,-0.24254 -0.16208,-0.27992c-0.0414,-0.08658 -0.06341,-0.14709 -0.0682,-0.16031c-0.01255,-0.03477 -0.01611,-0.04798 -0.0148,-0.04355c0.00059,0.002 0.0034,0.01209 0.0086,0.03244c0.0067,0.02623 0.01426,0.05805 0.0231,0.09717c0.01187,0.05264 0.02396,0.10954 0.03674,0.17204c0.02066,0.10101 0.04087,0.20579 0.06314,0.32184c0.01057,0.05501 0.02226,0.11608 0.03443,0.17801c0.0079,0.04 0.0173,0.08733 0.02799,0.13804c0.0072,0.03381 0.01932,0.09079 0.0354,0.15612c0.0058,0.02347 0.02799,0.11432 0.06331,0.2216c0.1131,0.33931 0.22504,0.66181 0.33701,0.97463c0.12929,0.36115 0.25986,0.71286 0.39022,1.05396c0.14437,0.37773 0.28937,0.74477 0.43391,1.1005c0.14674,0.36112 0.29311,0.71084 0.4387,1.0495c0.1425,0.33147 0.28366,0.65093 0.42376,0.95975c0.13229,0.29158 0.26232,0.57077 0.39095,0.83979c0.1025,0.21434 0.20199,0.41777 0.2993,0.6124a2.4842,2.4842 90 0 0 4.44391,-2.22187c-0.08372,-0.16745 -0.17045,-0.34473 -0.2609,-0.53389c-0.11357,-0.23751 -0.22957,-0.48652 -0.34873,-0.74914c-0.12617,-0.27811 -0.25406,-0.56753 -0.38383,-0.86936c-0.13258,-0.30839 -0.26613,-0.6275 -0.40023,-0.9575c-0.13209,-0.32509 -0.26438,-0.65997 -0.39584,-1.00393c-0.11872,-0.31063 -0.23699,-0.62927 -0.35349,-0.95469c-0.10092,-0.28195 -0.20085,-0.56992 -0.29844,-0.86268c0.03274,0.09937 0.04336,0.14759 0.04282,0.14544c0.006,0.02416 0.0074,0.03178 0.0033,0.01238c-0.0034,-0.01614 -0.0078,-0.03813 -0.01414,-0.07017c-0.0095,-0.04807 -0.01873,-0.09651 -0.0301,-0.15574c-0.02185,-0.11387 -0.04729,-0.24612 -0.07476,-0.38048c-0.01709,-0.08357 -0.03635,-0.17487 -0.05789,-0.27038c-0.01568,-0.06945 -0.03391,-0.14715 -0.05498,-0.2299c-0.0153,-0.06003 -0.03405,-0.13054 -0.05665,-0.20747c-0.01846,-0.06272 -0.04467,-0.14786 -0.07956,-0.24458c-0.02336,-0.06445 -0.06414,-0.1728 -0.12464,-0.29936c-0.03396,-0.07054 -0.10044,-0.20394 -0.20422,-0.35767c-0.05666,-0.08334 -0.15921,-0.22654 -0.31415,-0.38204c-0.03135,-0.03146 -0.06353,-0.06207 -0.09651,-0.0918c-0.0017,-0.0015 -0.0034,-0.0031 -0.0052,-0.0047c-0.06411,-0.05779 -0.1312,-0.11219 -0.20098,-0.163c-0.0019,-0.0014 -0.0037,-0.0027 -0.0056,-0.0041c-0.06895,-0.0502 -0.14043,-0.09682 -0.21418,-0.13967c-0.002,-0.0012 -0.004,-0.0023 -0.006,-0.0035c-0.07136,-0.04147 -0.14475,-0.07935 -0.21989,-0.11351c-0.0021,-0.00098 -0.0043,-0.002 -0.0065,-0.0029c-0.07135,-0.03244 -0.1442,-0.06149 -0.2183,-0.08704c-0.0023,-0.00079 -0.0046,-0.0016 -0.0069,-0.0024c-0.06924,-0.02388 -0.13951,-0.04468 -0.21059,-0.06235c-0.0024,-0.00061 -0.0049,-0.0012 -0.0073,-0.0018c-0.06557,-0.0163 -0.13179,-0.02992 -0.19848,-0.04082c-0.0026,-0.00042 -0.0052,-0.00085 -0.0078,-0.0013c-0.06093,-0.01 -0.1222,-0.01765 -0.1837,-0.02304c-0.0027,-0.00024 -0.0054,-0.00048 -0.0082,-0.00072c-0.05581,-0.0049 -0.11176,-0.0079 -0.16778,-0.009c-0.0029,-0.00006 -0.0057,-0.00011 -0.0086,-0.00017c-0.05061,-0.001 -0.10124,-0.00046 -0.15182,0.0016c-0.003,0.00012 -0.006,0.00025 -0.009,0.00037c-0.0456,0.0019 -0.09114,0.005 -0.13656,0.0094c-0.0031,0.0003 -0.0063,0.00061 -0.0094,0.00091c-0.04092,0.004 -0.08174,0.0089 -0.12242,0.01491c-0.0033,0.00048 -0.0065,0.00096 -0.00979,0.0014c-0.03666,0.0054 -0.0732,0.0116 -0.10958,0.01863c-0.0034,0.00066 -0.0068,0.0013 -0.01023,0.002c-0.03283,0.0063 -0.06554,0.01334 -0.09809,0.021c-0.0035,0.00083 -0.0071,0.0017 -0.01063,0.0025c-0.02943,0.0069 -0.05873,0.01439 -0.08789,0.02239c-0.0037,0.001 -0.0073,0.002 -0.01102,0.003c-0.02642,0.0072 -0.05272,0.01493 -0.07889,0.02304c-0.0038,0.0012 -0.0076,0.0024 -0.01141,0.0035c-0.02377,0.0074 -0.04743,0.0151 -0.07097,0.02319c-0.0039,0.0013 -0.0079,0.0027 -0.0118,0.0041c-0.02144,0.0074 -0.04278,0.01502 -0.06401,0.02296c-0.0041,0.0015 -0.0081,0.003 -0.01219,0.0046c-0.01939,0.0073 -0.03868,0.01476 -0.05789,0.0225c-0.0042,0.0017 -0.0084,0.0034 -0.01257,0.0051c-0.01758,0.0071 -0.03508,0.01438 -0.0525,0.02187c-0.0043,0.0019 -0.0086,0.0037 -0.01295,0.0056c-0.01599,0.0069 -0.03191,0.01392 -0.04776,0.02113c-0.0044,0.002 -0.0089,0.004 -0.01333,0.0061c-0.01458,0.0066 -0.02911,0.01342 -0.04356,0.02034c-0.0046,0.0022 -0.0091,0.0044 -0.0137,0.0066c-0.01334,0.0064 -0.02662,0.01289 -0.03985,0.01951c-0.0047,0.0023 -0.0094,0.0047 -0.01407,0.007c-0.01223,0.0061 -0.02442,0.01236 -0.03655,0.01868c-0.0048,0.0025 -0.0096,0.005 -0.01444,0.0075c-0.01125,0.0059 -0.02246,0.01182 -0.03361,0.01787c-0.0049,0.0027 -0.0099,0.0053 -0.0148,0.008c-0.01037,0.0056 -0.0207,0.0113 -0.03099,0.01706c-0.005,0.0028 -0.0101,0.0057 -0.01516,0.0085c-0.0096,0.0054 -0.01913,0.0108 -0.02865,0.01629c-0.0052,0.003 -0.01034,0.006 -0.01551,0.009c-0.0089,0.0051 -0.01773,0.01031 -0.02654,0.01555c-0.0053,0.0031 -0.01057,0.0063 -0.01587,0.0094c-0.0082,0.0049 -0.01646,0.0098 -0.02464,0.01483c-0.0054,0.0033 -0.01081,0.0066 -0.01622,0.0099c-0.0077,0.0047 -0.01532,0.0094 -0.02293,0.01416c-0.0055,0.0034 -0.01104,0.0069 -0.01656,0.01035c-0.0072,0.0045 -0.01428,0.009 -0.02139,0.01351c-0.0056,0.0036 -0.01127,0.0072 -0.01691,0.0108c-0.0067,0.0043 -0.01334,0.0086 -0.01998,0.0129c-0.0057,0.0037 -0.01149,0.0075 -0.01724,0.01125c-0.0063,0.0041 -0.01249,0.0082 -0.0187,0.01233c-0.0059,0.0039 -0.01172,0.0078 -0.01758,0.0117c-0.0059,0.0039 -0.01171,0.0078 -0.01754,0.01178c-0.006,0.004 -0.01194,0.0081 -0.01791,0.01214c-0.0055,0.0037 -0.011,0.0075 -0.01647,0.01126c-0.0061,0.0042 -0.01216,0.0084 -0.01824,0.01258c-0.0052,0.0036 -0.01035,0.0072 -0.0155,0.01078c-0.0062,0.0043 -0.01238,0.0087 -0.01857,0.01302c-0.0049,0.0034 -0.0097,0.0069 -0.0146,0.01031c-0.0063,0.0045 -0.0126,0.009 -0.01889,0.01345c-0.0046,0.0033 -0.0092,0.0066 -0.01378,0.0099c-0.0064,0.0046 -0.01281,0.0093 -0.01921,0.01387c-0.0044,0.0031 -0.0087,0.0063 -0.01302,0.0095c-0.0065,0.0048 -0.01302,0.0095 -0.01953,0.01429c-0.0041,0.003 -0.0082,0.006 -0.01232,0.0091c-0.0066,0.0049 -0.01323,0.0098 -0.01984,0.01471c-0.0039,0.0029 -0.0078,0.0058 -0.01168,0.0087c-0.0067,0.005 -0.01344,0.01009 -0.02015,0.01512c-0.0037,0.0028 -0.0074,0.0056 -0.01108,0.0084c-0.0068,0.0052 -0.01365,0.01036 -0.02045,0.01553c-0.0035,0.0027 -0.007,0.0053 -0.01052,0.008c-0.0069,0.0053 -0.01385,0.01063 -0.02076,0.01594c-0.0033,0.0026 -0.0067,0.0051 -0.01,0.0077c-0.007,0.0055 -0.01405,0.0109 -0.02106,0.01634c-0.0032,0.0025 -0.0064,0.0049 -0.0095,0.0074c-0.0071,0.0056 -0.01425,0.01117 -0.02135,0.01674c-0.003,0.0024 -0.0061,0.0048 -0.0091,0.0071c-0.0072,0.0057 -0.01444,0.01143 -0.02164,0.01713c-0.0029,0.0023 -0.0058,0.0046 -0.0087,0.0069c-0.0073,0.0059 -0.01464,0.01169 -0.02193,0.01752c-0.0028,0.0022 -0.0055,0.0044 -0.0083,0.0066c-0.0074,0.006 -0.01483,0.01195 -0.02222,0.0179c-0.0026,0.0021 -0.0053,0.0043 -0.0079,0.0064c-0.0075,0.0061 -0.01502,0.0122 -0.0225,0.01828c-0.01517,0.01239 -0.02276,0.01861 -0.03034,0.02482c-0.01494,0.01231 -0.02262,0.01865 -0.03029,0.02497c-0.01473,0.01222 -0.0225,0.01869 -0.03026,0.02513c-0.01453,0.01215 -0.0224,0.01873 -0.03024,0.0253c-0.01436,0.01208 -0.02231,0.01879 -0.03024,0.02547c-0.01419,0.01202 -0.02223,0.01885 -0.03025,0.02565c-0.01404,0.01197 -0.02217,0.01891 -0.03027,0.02583c-0.0139,0.01193 -0.02212,0.01898 -0.0303,0.02601c-0.01377,0.01189 -0.02207,0.01906 -0.03034,0.0262c-0.01366,0.01185 -0.02204,0.01914 -0.03038,0.02639c-0.01355,0.01183 -0.02201,0.01922 -0.03043,0.02658c-0.01345,0.0118 -0.022,0.01931 -0.0305,0.02677c-0.01336,0.01178 -0.02199,0.0194 -0.03056,0.02697c-0.01328,0.01177 -0.02198,0.01949 -0.03063,0.02717c-0.0132,0.01176 -0.02198,0.01959 -0.03071,0.02736c-0.01313,0.01175 -0.02199,0.01968 -0.03079,0.02756c-0.01307,0.01175 -0.02201,0.01978 -0.03087,0.02776c-0.01302,0.01175 -0.02202,0.01989 -0.03096,0.02796c-0.01296,0.01175 -0.02204,0.01999 -0.03105,0.02816c-0.01292,0.01176 -0.02207,0.02009 -0.03114,0.02835c-0.01288,0.01177 -0.0221,0.0202 -0.03124,0.02855c-0.01284,0.01178 -0.02213,0.02031 -0.03133,0.02875c-0.01281,0.01179 -0.02217,0.02042 -0.03143,0.02895c-0.01278,0.01181 -0.02221,0.02053 -0.03153,0.02914c-0.01276,0.01183 -0.02226,0.02064 -0.03163,0.02934c-0.01274,0.01185 -0.0223,0.02075 -0.03173,0.02953c-0.13566,0.12649 -0.26545,0.25004 -0.38967,0.36978c-0.22157,0.21362 -0.4362,0.42546 -0.64125,0.6303c-0.22689,0.22669 -0.44828,0.45112 -0.66146,0.66895c-0.28554,0.29178 -0.56579,0.58142 -0.83471,0.86064c-0.27898,0.28968 -0.562,0.58513 -0.82495,0.85948c-0.19629,0.20478 -0.37934,0.3957 -0.56412,0.58744c-0.16841,0.17472 -0.32531,0.33676 -0.48073,0.49522c-0.11354,0.11569 -0.21559,0.21865 -0.3148,0.31644c-0.0574,0.05653 -0.1052,0.1028 -0.14888,0.14391c-0.01114,0.01047 -0.01937,0.01813 -0.02688,0.02506c-0.0015,0.0014 -0.0062,0.0057 -0.01087,0.01c0.0035,-0.0032 0.00013,-0.00014 -0.0032,0.0029c0.00055,-0.00049 -0.0026,0.0023 -0.0057,0.0051c0.0011,-0.00098 -0.0018,0.0016 -0.0047,0.0042c0.0017,-0.0015 -0.00096,0.00085 -0.0036,0.0032c0.0023,-0.0021 -0.00003,0.00003 -0.0024,0.0021c0.0031,-0.0027 0.00099,-0.00086 -0.0011,0.00093c0.0039,-0.0033 0.0021,-0.0018 0.00038,-0.00033c0.0048,-0.0041 0.0034,-0.0029 0.002,-0.0017c0.0058,-0.0049 0.0048,-0.004 0.0038,-0.0031c0.007,-0.0058 0.0064,-0.0053 0.0058,-0.0048c-0.00047,0.00038 -0.00094,0.00076 -0.0014,0.0011l0.01901,-0.0152c-0.0034,0.0027 -0.0066,0.0052 -0.0095,0.0075l0.02143,-0.01677c-0.0034,0.0026 -0.0064,0.005 -0.0091,0.007a2.4842,2.4842 90 0 0 3.04118,3.92891l0.00009,0.00004z" id="path-1-5" mask="url(#mask97)" fill="#ff0000" fill-rule="nonzero" stroke-width="4.413" stroke-linecap="round" stroke-linejoin="round"/>
 </g>
</svg>