<?xml version="1.0" encoding="UTF-8" standalone="no"?>
<!-- Created with Inkscape (http://www.inkscape.org/) -->

<svg
   version="1.1"
   id="svg1"
   width="2048"
   height="2048"
   viewBox="0 0 2048 2048"
   sodipodi:docname="pfp-gen3-2048-mono.svg"
   inkscape:version="1.4.3 (0d15f75, 2025-12-25)"
   xmlns:inkscape="http://www.inkscape.org/namespaces/inkscape"
   xmlns:sodipodi="http://sodipodi.sourceforge.net/DTD/sodipodi-0.dtd"
   xmlns="http://www.w3.org/2000/svg"
   xmlns:svg="http://www.w3.org/2000/svg">
  <defs
     id="defs1">
    <filter
       style="color-interpolation-filters:sRGB"
       id="filter17"
       inkscape:label="filter1">
      <feColorMatrix
         id="feColorMatrix17"
         type="hueRotate"
         values="298.58823529411768" />
    </filter>
  </defs>
  <sodipodi:namedview
     id="namedview1"
     pagecolor="#ffffff"
     bordercolor="#000000"
     borderopacity="0.25"
     inkscape:showpageshadow="2"
     inkscape:pageopacity="0.0"
     inkscape:pagecheckerboard="0"
     inkscape:deskcolor="#d1d1d1"
     inkscape:zoom="0.13931523"
     inkscape:cx="-114.84746"
     inkscape:cy="1309.9788"
     inkscape:window-width="1920"
     inkscape:window-height="1009"
     inkscape:window-x="-8"
     inkscape:window-y="-8"
     inkscape:window-maximized="1"
     inkscape:current-layer="g1" />
  <g
     inkscape:groupmode="layer"
     inkscape:label="Image"
     id="g1">
    <rect
       style="fill:#000000;fill-opacity:1;stroke-width:98.2801;stroke-linecap:round;stroke-linejoin:round"
       id="rect26"
       width="1844.9764"
       height="1844.9764"
       x="101.51177"
       y="101.51177"
       ry="922.48822"
       rx="922.48822" />
    <path
       style="fill:#000000;stroke:#ffffff;stroke-width:125.386;stroke-dasharray:none;stroke-opacity:1"
       d="m 1027.4575,1940.9051 c 0.9024,-0.9029 9.7466,-1.1793 37.7294,-1.1793 23.3492,0 36.7611,-0.3408 37.1336,-0.9435 0.3417,-0.5529 5.8093,-0.9434 13.2085,-0.9434 7.3991,0 12.8666,-0.3906 13.2084,-0.9435 0.3417,-0.553 5.8092,-0.9434 13.2084,-0.9434 7.3992,0 12.8667,-0.3906 13.2084,-0.9435 0.3207,-0.519 1.413,-0.9435 2.4272,-0.9435 1.0142,0 2.5812,-0.3715 3.4823,-0.8254 7.7809,-3.9199 10.2752,-4.8353 13.1753,-4.8353 4.5614,0 12.0319,-2.0654 17.4615,-4.8275 0.9011,-0.4583 4.0853,-0.8357 7.0759,-0.8386 8.4088,-0.01 14.2201,-1.8317 26.1939,-8.2196 1.0378,-0.5536 4.6466,-1.5062 8.0194,-2.117 5.3143,-0.9621 18.4263,-6.5829 21.9405,-9.4055 0.6459,-0.5187 2.6602,-2.1743 4.4764,-3.679 1.8162,-1.5047 4.3635,-3.0526 5.6608,-3.4399 4.1933,-1.2516 8.8296,-3.5871 15.0953,-7.6043 8.4839,-5.4393 15.9908,-8.0631 25.9145,-9.0574 4.6532,-0.4661 8.8776,-1.2648 9.3874,-1.7746 0.5099,-0.5099 1.697,-0.9269 2.6381,-0.9269 0.941,0 2.4482,-0.3751 3.3493,-0.8335 0.9009,-0.4584 2.9119,-1.4006 4.4685,-2.0939 1.5568,-0.6932 4.6052,-2.4411 6.7743,-3.8838 2.1691,-1.4429 5.0098,-2.6234 6.3127,-2.6234 1.3028,0 2.6312,-0.4246 2.9519,-0.9436 0.3206,-0.5188 1.4129,-0.9434 2.4271,-0.9434 1.0142,0 2.5812,-0.375 3.4824,-0.8333 0.9009,-0.4585 2.9118,-1.4007 4.4685,-2.094 1.5567,-0.6933 4.6052,-2.4411 6.7743,-3.8839 2.169,-1.4428 5.0097,-2.6234 6.3127,-2.6234 1.3027,0 2.6312,-0.4246 2.9518,-0.9434 0.3208,-0.5189 1.413,-0.9435 2.4273,-0.9435 1.0141,0 2.5811,-0.3714 3.4822,-0.8253 8.4005,-4.2323 10.2571,-4.8355 14.8802,-4.8355 2.7742,0 5.3065,-0.4246 5.6272,-0.9434 0.3208,-0.5189 1.413,-0.9435 2.4272,-0.9435 1.0142,0 2.5812,-0.3714 3.4823,-0.8253 8.5878,-4.3266 10.2035,-4.8355 15.3519,-4.8355 3.0337,0 5.7783,-0.4246 6.099,-0.9434 0.3207,-0.5189 1.3641,-0.9435 2.3185,-0.9435 3.1164,0 22.3206,-11.2754 24.0956,-14.1472 0.3222,-0.5215 1.3503,-0.9482 2.2846,-0.9482 1.8512,0 13.5614,-5.6922 14.0715,-6.8401 0.173,-0.3891 0.916,-0.7075 1.6511,-0.7075 0.735,0 1.3366,-0.4245 1.3366,-0.9435 0,-0.5189 0.5534,-0.9435 1.2297,-0.9435 0.6764,0 4.4642,-3.3042 8.4176,-7.3426 3.9532,-4.0385 8.7067,-7.9387 10.5634,-8.6673 1.8567,-0.7284 3.3757,-1.6698 3.3757,-2.0918 0,-0.4221 0.6369,-0.7674 1.4152,-0.7674 0.7783,0 1.4152,-0.4246 1.4152,-0.9435 0,-0.5189 0.5452,-0.9434 1.2116,-0.9434 0.6663,0 3.532,-2.3587 6.3684,-5.2414 2.9734,-3.0224 7.5533,-6.3956 10.8174,-7.9673 5.6857,-2.7378 7.4921,-3.9321 13.1996,-8.7268 1.6985,-1.427 3.6691,-2.5999 4.379,-2.6065 1.4473,-0.013 15.139,-6.8414 17.4401,-8.6971 0.8165,-0.6586 3.5047,-3.0016 5.9739,-5.2069 2.4691,-2.2054 4.8865,-4.0098 5.3722,-4.0098 0.4855,0 3.6755,-1.4561 7.0889,-3.2359 3.4134,-1.7798 7.8545,-3.5101 9.8692,-3.8452 7.5124,-1.2497 20.1376,-6.5545 23.8661,-10.0281 1.0391,-0.968 2.2685,-1.7599 2.7322,-1.7599 0.4635,0 2.1756,-1.2737 3.8047,-2.8305 1.629,-1.5566 3.7896,-2.8303 4.8015,-2.8303 1.0119,0 2.1022,-0.4246 2.4229,-0.9435 0.3207,-0.5189 1.4072,-0.9434 2.4143,-0.9434 1.0072,0 1.8313,-0.4246 1.8313,-0.9435 0,-0.519 0.8491,-0.9434 1.8869,-0.9434 1.0378,0 1.887,-0.4246 1.887,-0.9436 0,-0.5189 0.4542,-0.9434 1.0092,-0.9434 1.3666,0 9.277,-5.4617 12.2245,-8.4406 2.842,-2.8718 6.0157,-4.7678 7.9812,-4.7678 0.7855,0 1.428,-0.4246 1.428,-0.9435 0,-0.5189 0.8492,-0.9434 1.887,-0.9434 1.0378,0 1.8869,-0.4246 1.8869,-0.9436 0,-0.5188 0.4542,-0.9434 1.0093,-0.9434 1.3666,0 9.277,-5.4617 12.2245,-8.4406 2.8419,-2.8718 6.0157,-4.7678 7.9812,-4.7678 0.7855,0 1.428,-0.4246 1.428,-0.9434 0,-0.519 0.8492,-0.9435 1.887,-0.9435 1.0378,0 1.8869,-0.4246 1.8869,-0.9435 0,-0.5189 0.4542,-0.9435 1.0093,-0.9435 1.3577,0 8.8783,-5.1663 13.983,-9.6058 2.2784,-1.9814 4.7067,-3.6026 5.3962,-3.6026 1.5464,0 6.5671,-2.7879 13.5036,-7.4984 6.1414,-4.1706 11.5663,-9.8651 15.9439,-16.7358 1.952,-3.0639 4.9468,-6.0563 8.0108,-8.0045 7.1728,-4.5606 13.192,-10.4812 17.7173,-17.4269 2.9908,-4.5903 5.5655,-7.1596 10.2205,-10.1983 7.3284,-4.7838 12.2798,-9.9427 17.9053,-18.6551 2.6623,-4.1236 5.6244,-7.3261 8.4619,-9.1488 5.8002,-3.7263 10.3402,-8.5209 16.0068,-16.9049 2.574,-3.8086 6.3147,-8.0055 8.3127,-9.3266 1.9979,-1.321 5.2659,-3.9365 7.2624,-5.8121 5.3201,-4.9981 14.7677,-19.1846 14.7677,-22.1752 0,-0.6896 1.6241,-3.1178 3.6091,-5.3962 4.9626,-5.696 11.4862,-15.5211 11.4862,-17.2992 0,-0.8069 0.4245,-1.467 0.9434,-1.467 0.519,0 0.9435,-0.824 0.9435,-1.8313 0,-1.0071 0.4245,-2.0936 0.9435,-2.4143 0.5189,-0.3206 0.9434,-1.5944 0.9434,-2.8303 0,-1.2361 0.4246,-2.5097 0.9435,-2.8304 0.5189,-0.3207 0.9528,-1.7256 0.9644,-3.1219 0.011,-1.3965 0.8513,-3.6002 1.8659,-4.8976 1.0148,-1.2972 1.8544,-2.8893 1.8661,-3.5379 0.011,-0.6487 0.4454,-1.1793 0.9644,-1.1793 0.5189,0 0.9434,-0.8491 0.9434,-1.887 0,-1.0378 0.4246,-1.8869 0.9435,-1.8869 0.5189,0 0.9434,-0.824 0.9434,-1.8312 0,-1.0072 0.4246,-2.0937 0.9435,-2.4144 0.5189,-0.3206 0.9434,-1.5943 0.9434,-2.8303 0,-1.2361 0.4246,-2.5097 0.9435,-2.8305 0.5189,-0.3206 0.9434,-1.8493 0.9434,-3.3972 0,-1.5478 0.8492,-3.7256 1.887,-4.8395 1.0378,-1.114 1.8869,-2.5821 1.8869,-3.2627 0,-0.6805 0.4246,-1.2373 0.9435,-1.2373 0.5189,0 0.9434,-0.849 0.9434,-1.8869 0,-1.0377 0.4246,-1.8869 0.9435,-1.8869 0.5189,0 0.9434,-0.824 0.9434,-1.8312 0,-1.0072 0.4246,-2.0937 0.9435,-2.4143 0.5189,-0.3207 0.9434,-1.5944 0.9434,-2.8304 0,-1.2361 0.4246,-2.5097 0.9436,-2.8304 0.5189,-0.3207 0.9434,-1.8495 0.9434,-3.3972 0,-1.5478 0.8491,-3.7257 1.8869,-4.8396 1.0378,-1.1139 1.8869,-2.5821 1.8869,-3.2626 0,-0.6806 0.4246,-1.2374 0.9435,-1.2374 0.5189,0 0.9434,-0.849 0.9434,-1.8868 0,-1.0378 0.4246,-1.8869 0.9435,-1.8869 0.5189,0 0.9435,-0.8241 0.9435,-1.8313 0,-1.0072 0.4245,-2.0937 0.9435,-2.4143 0.5188,-0.3207 0.9434,-1.5944 0.9434,-2.8304 0,-1.2361 0.4246,-2.5098 0.9435,-2.8304 0.5188,-0.3207 0.9434,-2.1976 0.9434,-4.1709 0,-2.3341 1.3188,-6.1516 3.7738,-10.9245 2.0756,-4.0351 3.7739,-8.102 3.7739,-9.0375 0,-0.9355 0.4246,-1.9633 0.9435,-2.284 0.5188,-0.3206 0.9434,-3.0622 0.9434,-6.0924 0,-4.2966 0.623,-6.6935 2.8304,-10.8899 1.5567,-2.9593 2.8304,-6.1615 2.8304,-7.116 0,-0.9545 0.4246,-1.9979 0.9434,-2.3186 0.5189,-0.3206 0.9435,-1.8129 0.9435,-3.3158 0,-1.5031 1.0955,-4.3439 2.4346,-6.3127 2.8836,-4.2402 7,-12.9868 7,-14.8737 0,-0.7324 0.4246,-1.594 0.9434,-1.9146 0.5189,-0.3207 0.9435,-2.2967 0.9435,-4.3911 0,-2.42 0.9895,-5.611 2.7149,-8.7547 3.7241,-6.7861 6.4956,-14.9289 7.567,-22.234 0.4946,-3.3729 1.8042,-7.9662 2.9099,-10.2073 1.1059,-2.2412 2.6686,-6.9114 3.473,-10.378 0.8043,-3.4669 2.9171,-9.2752 4.695,-12.9075 4.0391,-8.2523 5.9749,-15.4476 5.9893,-22.2624 0.01,-2.9415 0.6839,-6.6282 1.5302,-8.3245 2.5935,-5.199 4.1184,-12.5165 4.1443,-19.8883 0.014,-4.0586 0.6733,-8.8864 1.5453,-11.3215 0.8363,-2.3351 1.7146,-7.4298 1.9517,-11.3215 0.2373,-3.8918 1.0945,-8.5436 1.905,-10.3374 2.4522,-5.4276 4.0071,-12.4747 4.0189,-18.2151 0.01,-2.9907 0.3862,-6.1749 0.8446,-7.076 3.1299,-6.1526 4.8274,-12.9922 4.8274,-19.4503 0,-2.9305 0.375,-6.0654 0.8333,-6.9666 1.6421,-3.2276 2.7842,-6.4297 3.9498,-11.0727 0.6512,-2.5945 1.9643,-5.8444 2.9178,-7.2217 1.4947,-2.1591 1.7337,-4.4597 1.7337,-16.6908 0,-8.4399 0.3821,-14.4226 0.9434,-14.7694 0.5189,-0.3207 0.9435,-1.5944 0.9435,-2.8304 0,-1.2361 0.4245,-2.5097 0.9434,-2.8304 0.531,-0.3281 0.9435,-4.8658 0.9435,-10.3781 0,-5.5122 0.4125,-10.0499 0.9435,-10.378 0.5189,-0.3207 0.9435,-1.5944 0.9435,-2.8304 0,-1.2361 0.4245,-2.5097 0.9434,-2.8304 0.5267,-0.3256 0.9435,-4.7314 0.9435,-9.9748 0,-5.1655 0.3724,-10.1289 0.8276,-11.03 2.2209,-4.396 2.9462,-9.3568 2.9462,-20.1498 0,-7.3491 0.3925,-12.166 1.0443,-12.81779 1.5962,-1.59615 1.7264,-88.44231 0.1351,-90.04121 -0.6487,-0.6517 -1.1794,-1.94912 -1.1794,-2.88313 0,-0.93403 -0.4246,-1.69823 -0.9435,-1.69823 -0.5544,0 -0.9434,-3.28356 -0.9434,-7.96373 0,-4.38005 -0.4246,-8.22613 -0.9435,-8.54683 -0.5529,-0.34172 -0.9434,-5.80925 -0.9434,-13.20844 0,-7.3992 -0.3906,-12.86672 -0.9435,-13.20845 -0.5189,-0.32069 -0.9434,-1.59436 -0.9434,-2.83037 0,-1.23601 -0.4246,-2.50968 -0.9435,-2.83039 -0.531,-0.32814 -0.9435,-4.86578 -0.9435,-10.37806 0,-5.51227 -0.4125,-10.04992 -0.9435,-10.37806 -0.5189,-0.3207 -0.9434,-1.41291 -0.9434,-2.42714 0,-1.01422 -0.3715,-2.58125 -0.8254,-3.48229 -4.5473,-9.02627 -4.8353,-10.03164 -4.8353,-16.87672 0,-7.03681 -1.421,-15.10128 -2.9587,-16.79201 -0.4484,-0.49295 -0.8202,-4.52625 -0.8264,-8.96287 -0.012,-9.03828 -1.4775,-15.61926 -5.0913,-22.87117 -1.3448,-2.69876 -2.4502,-6.41556 -2.4564,-8.25956 -0.015,-4.6135 -2.1683,-12.29185 -5.0913,-18.15732 -1.3448,-2.69876 -2.4502,-6.41557 -2.4564,-8.25957 -0.013,-3.87989 -1.8925,-11.42392 -4.0189,-16.13014 -0.8104,-1.79379 -1.6645,-6.4456 -1.898,-10.33737 -0.2451,-4.08702 -1.3279,-9.46709 -2.5635,-12.73671 -1.1765,-3.11343 -2.4619,-9.05723 -2.8565,-13.20844 -0.7181,-7.55448 -2.526,-14.08913 -5.6115,-20.2844 -0.9046,-1.81616 -1.9116,-5.63718 -2.2379,-8.49114 -0.3263,-2.85397 -1.5931,-7.94866 -2.8153,-11.32153 -1.2719,-3.51025 -2.4798,-9.53446 -2.825,-14.08849 -0.3317,-4.37581 -1.035,-8.38787 -1.5628,-8.9157 -0.5279,-0.52783 -0.9597,-1.64054 -0.9597,-2.47269 0,-0.83214 -1.1029,-3.72601 -2.4507,-6.43085 -1.5668,-3.14406 -2.5978,-7.03233 -2.8586,-10.78022 -0.2244,-3.22431 -0.8198,-6.27422 -1.3232,-6.7776 -0.5033,-0.50337 -0.9152,-1.61419 -0.9152,-2.46849 0,-0.85431 -0.6856,-2.92754 -1.5235,-4.6072 -0.8957,-1.7954 -1.6638,-6.20026 -1.864,-10.68883 -0.1873,-4.1992 -0.7754,-8.06976 -1.3069,-8.60125 -0.5315,-0.53148 -0.9663,-1.6719 -0.9663,-2.53423 0,-0.86235 -1.6983,-4.86937 -3.7739,-8.90451 -2.4551,-4.77282 -3.7738,-8.5904 -3.7738,-10.92445 0,-1.97331 -0.4246,-3.85022 -0.9435,-4.17092 -0.5189,-0.3207 -0.9434,-1.59437 -0.9434,-2.83037 0,-1.23601 -0.4246,-2.50969 -0.9435,-2.83039 -0.5189,-0.3207 -0.9435,-1.40716 -0.9435,-2.41433 0,-1.00719 -0.4246,-1.83124 -0.9434,-1.83124 -0.5189,0 -0.9435,-0.84912 -0.9435,-1.88692 0,-1.0378 -0.4246,-1.88692 -0.9434,-1.88692 -0.5189,0 -0.9435,-0.55679 -0.9435,-1.23729 0,-0.68051 -0.8491,-2.14871 -1.8869,-3.26266 -1.0379,-1.11396 -1.887,-2.40471 -1.887,-2.86835 0,-0.46365 -1.2736,-2.17577 -2.8303,-3.8047 -1.5568,-1.62895 -2.8304,-3.78964 -2.8304,-4.80156 0,-1.01191 -0.4246,-2.10221 -0.9434,-2.42292 -0.519,-0.32069 -0.9435,-1.40715 -0.9435,-2.41433 0,-1.00718 -0.4246,-1.83124 -0.9435,-1.83124 -0.5189,0 -0.9435,-0.84911 -0.9435,-1.88692 0,-1.0378 -0.4245,-1.88691 -0.9434,-1.88691 -0.5189,0 -0.9435,-0.46517 -0.9435,-1.03369 0,-0.56853 -0.7994,-2.16061 -1.7764,-3.53798 -3.2054,-4.51864 -5.7713,-9.60489 -5.7713,-11.44018 0,-0.9914 -0.4245,-2.06493 -0.9434,-2.38563 -0.5189,-0.3207 -0.9435,-1.40716 -0.9435,-2.41433 0,-1.00719 -0.4245,-1.83124 -0.9434,-1.83124 -0.5189,0 -0.9435,-0.84912 -0.9435,-1.88692 0,-1.0378 -0.4245,-1.88692 -0.9434,-1.88692 -0.519,0 -0.9435,-0.44786 -0.9435,-0.99523 0,-0.54738 -1.8044,-3.57366 -4.0097,-6.72508 -4.6405,-6.63119 -4.8953,-7.0552 -6.1328,-10.20543 -3.0511,-7.76679 -8.4507,-16.48024 -14.5521,-23.48348 -1.9851,-2.27839 -3.6092,-4.70668 -3.6092,-5.39619 0,-3.52513 -9.6631,-17.3838 -16.8832,-24.21355 -3.1679,-2.99666 -5.7598,-5.88572 -5.7598,-6.42013 0,-1.85937 -7.8296,-12.69655 -13.067,-18.08626 -2.8994,-2.98369 -4.9915,-5.42489 -4.6493,-5.42489 1.7423,0 -9.3616,-16.44804 -14.3306,-21.22786 -2.1579,-2.07562 -4.6118,-5.25979 -5.4533,-7.07595 -4.4713,-9.65116 -13.0001,-20.08323 -20.7585,-25.3911 -1.6864,-1.15374 -3.0663,-2.53352 -3.0663,-3.06616 0,-4.15226 -18.834,-25.31998 -22.5284,-25.31998 -0.7571,0 -5.7754,-6.94124 -5.7754,-7.98839 0,-0.52771 -1.7544,-2.77382 -6.2192,-7.96248 -1.6046,-1.86453 -3.7273,-4.42091 -4.7174,-5.68085 -7.736,-9.84485 -16.2796,-16.60337 -27.7453,-21.9486 -2.8539,-1.3305 -6.0381,-3.37063 -7.0759,-4.53361 -3.7749,-4.23035 -20.8855,-14.15444 -24.4042,-14.15444 -0.7205,0 -1.8731,-0.6787 -2.5616,-1.50823 -2.1261,-2.5617 -14.2569,-10.08942 -20.0318,-12.43064 -3.017,-1.22309 -8.2588,-2.80408 -11.6485,-3.5133 -3.3897,-0.70923 -6.8651,-1.8672 -7.7231,-2.57328 -2.5602,-2.10699 -8.5304,-4.48731 -16.1428,-6.4362 -2.3126,-0.59206 -5.9214,-2.21699 -8.0194,-3.61095 -5.1715,-3.43598 -7.4248,-4.43991 -15.1361,-6.74373 -3.6324,-1.08518 -7.6656,-2.61187 -8.9629,-3.39265 -1.2972,-0.78077 -3.1017,-1.65521 -4.0098,-1.94319 -0.9081,-0.28799 -1.651,-0.89865 -1.651,-1.35704 0,-0.45838 -0.8491,-0.83342 -1.8869,-0.83342 -1.0378,0 -1.8869,-0.42455 -1.8869,-0.94345 0,-0.51891 -0.7642,-0.94346 -1.6983,-0.94346 -0.9339,0 -2.1015,-0.35621 -2.5945,-0.79157 -0.4929,-0.43537 -3.4436,-1.3738 -6.557,-2.08542 -3.1134,-0.71161 -6.4838,-2.05364 -7.4898,-2.98228 -1.0059,-0.92863 -2.3857,-1.68842 -3.0662,-1.68842 -0.6805,0 -1.2373,-0.42455 -1.2373,-0.94346 0,-0.51891 -0.849,-0.94346 -1.8869,-0.94346 -1.0378,0 -1.8869,-0.42456 -1.8869,-0.94346 0,-0.51891 -0.824,-0.94346 -1.8312,-0.94346 -1.0072,0 -2.0937,-0.42456 -2.4144,-0.94346 -0.3206,-0.5189 -1.5943,-0.94346 -2.8303,-0.94346 -1.2361,0 -2.5098,-0.42456 -2.8305,-0.94346 -0.3206,-0.5189 -2.1716,-0.94346 -4.1131,-0.94346 -3.5929,0 -8.6028,-1.78288 -8.6162,-3.06624 0,-0.38919 -0.8565,-0.70761 -1.8943,-0.70761 -1.0377,0 -1.8869,-0.42455 -1.8869,-0.94346 0,-0.5189 -0.7642,-0.94345 -1.6982,-0.94345 -0.9341,0 -2.2287,-0.5307 -2.877,-1.17933 -1.677,-1.67778 -65.8174,-1.69965 -69.1058,-0.0236 -1.2472,0.63566 -6.5131,1.37388 -11.7022,1.6405 -23.0144,1.18246 -36.024,2.1336 -38.2101,2.79352 -3.6094,1.08963 -17.9257,8.27926 -17.9257,9.00236 0,0.35128 -2.7846,1.21977 -6.1879,1.92998 -3.4033,0.71021 -6.4003,1.63498 -6.6599,2.05505 -0.2596,0.42007 -1.2961,0.76377 -2.3033,0.76377 -1.0072,0 -1.8312,0.42456 -1.8312,0.94346 0,1.90228 -3.683,0.84342 -11.606,-3.33673 -4.4619,-2.3541 -10.3768,-5.05921 -13.1443,-6.01137 -2.7675,-0.95216 -7.4714,-2.84709 -10.4531,-4.21095 -2.9817,-1.36388 -5.6331,-2.47978 -5.8919,-2.47978 -0.2588,0 -3.5366,-1.43528 -7.284,-3.18954 -10.5365,-4.93255 -12.9561,-5.9371 -19.5499,-8.11612 -3.3728,-1.11465 -7.0877,-2.42331 -8.2553,-2.90815 -1.1675,-0.48485 -3.1841,-1.3061 -4.4814,-1.82501 -1.2972,-0.5189 -3.3138,-1.3257 -4.4814,-1.79289 -1.1675,-0.4672 -4.0333,-1.68373 -6.3684,-2.70342 -2.3351,-1.01967 -5.9437,-2.42234 -8.0194,-3.11699 -2.0756,-0.69467 -4.1772,-1.60092 -4.6701,-2.01389 -0.4929,-0.41297 -1.7879,-0.75086 -2.8775,-0.75086 -1.0897,0 -2.3847,-0.33788 -2.8776,-0.75086 -1.1633,-0.97454 -5.4241,-2.3797 -16.4634,-5.42933 -4.9296,-1.36182 -11.7225,-3.26264 -15.0954,-4.22404 -12.6686,-3.6111 -19.5477,-5.43376 -26.4169,-6.99935 -3.8917,-0.88698 -8.3496,-1.98784 -9.9062,-2.44636 -6.8106,-2.00597 -18.5091,-4.59715 -25.4735,-5.6423 -4.1512,-0.62298 -10.0951,-1.71259 -13.2084,-2.42136 -3.1134,-0.70878 -8.6327,-1.76281 -12.265,-2.3423 -7.8491,-1.252215 -14.0071,-2.306146 -21.6996,-3.713841 -16.0204,-2.931667 -41.4426,-5.985685 -64.627,-7.763791 -20.7659,-1.592611 -95.95635,-1.589916 -114.15872,0.004 -37.34973,3.27077 -53.33019,5.458581 -90.57218,12.399822 -5.44848,1.0155 -13.72734,2.51703 -18.39747,3.33674 -13.05571,2.29155 -42.75266,9.50274 -60.61732,14.71944 -5.98408,1.74743 -9.30995,2.65216 -18.63334,5.06876 -9.09698,2.35792 -12.40869,3.3982 -17.45401,5.48267 -3.39207,1.40144 -5.68675,2.26545 -9.4346,3.5524 -4.16356,1.42968 -5.98472,2.15885 -11.54711,4.62327 -2.45914,1.08951 -4.90609,1.98094 -5.4377,1.98094 -0.5316,0 -1.70376,0.3916 -2.6048,0.87022 -0.90104,0.47861 -5.24699,2.21729 -9.65767,3.86373 -11.76217,4.39065 -14.91222,5.62354 -18.8692,7.38519 -1.29725,0.57754 -5.96738,2.58961 -10.37806,4.47129 -18.55776,7.91701 -23.57874,10.18896 -32.29675,14.61397 -5.05007,2.56327 -10.78159,5.57356 -12.73671,6.68951 -1.95511,1.11597 -7.37575,3.99234 -12.04588,6.39197 -4.67013,2.39962 -11.46304,6.10512 -15.09537,8.23446 -3.63232,2.12933 -12.42768,7.1256 -19.54525,11.10283 -7.11757,3.97722 -15.18415,8.93544 -17.92575,11.01825 -2.74159,2.08281 -7.93507,5.52604 -11.54109,7.65163 -3.60601,2.12557 -11.88488,7.7475 -18.39748,12.49316 -6.51259,4.74565 -14.38842,10.16777 -17.50185,12.04917 -3.11342,1.88138 -8.63266,5.915 -12.26497,8.9636 -3.63233,3.0486 -8.51474,6.86557 -10.8498,8.48215 -2.33507,1.61659 -6.36836,4.96419 -8.96288,7.43914 -2.59451,2.47495 -8.11375,6.98552 -12.26497,10.02348 -4.15123,3.03797 -14.55287,12.20945 -23.11478,20.38106 -8.5619,8.17159 -19.87822,18.75757 -25.14736,23.52436 -5.26914,4.7668 -13.33572,12.99895 -17.92574,18.29366 -4.59002,5.29471 -12.54494,13.99762 -17.67761,19.33981 -5.13267,5.34219 -9.99272,10.67709 -10.80011,11.85534 -0.8074,1.17825 -3.29436,4.05278 -5.52659,6.38784 -2.23223,2.33506 -5.65104,6.49052 -7.59736,9.23436 -4.58017,6.45692 -8.05382,10.95551 -14.13011,18.29935 -11.2603,13.60925 -33.9711,46.07057 -45.31471,64.76984 -2.72758,4.49623 -7.87222,12.63281 -11.43255,18.08129 -5.63873,8.62915 -17.18278,30.11421 -29.65523,55.19242 -2.06458,4.15123 -4.96689,9.98889 -6.4496,12.97258 -1.48271,2.98369 -3.95501,7.86611 -5.494,10.8498 -3.80218,7.3714 -7.99533,16.82674 -9.73661,21.95555 -2.25107,6.63039 -8.61605,22.93946 -11.77475,30.17063 -2.10282,4.8139 -4.36801,11.36934 -8.6392,25.00169 -1.6258,5.18903 -3.36858,10.38986 -3.87284,11.55738 -2.30805,5.34389 -2.83264,6.77175 -4.76602,12.97258 -1.13254,3.63233 -2.38497,7.45334 -2.78317,8.49115 -1.96644,5.12497 -7.71635,27.06729 -10.38368,39.62533 -0.55108,2.59451 -1.36295,6.20325 -1.80414,8.01941 -0.4412,1.81616 -1.25392,5.42489 -1.80606,8.01941 -0.55213,2.59451 -1.65793,7.6892 -2.45734,11.32152 -3.10885,14.12594 -4.27412,20.07436 -5.26735,26.88862 -0.56727,3.89177 -1.43949,9.62329 -1.93827,12.73672 -1.72098,10.74224 -3.77425,26.44228 -4.54657,34.7645 l -0.77468,8.34762 -6.72474,6.76993 c -3.69861,3.72351 -6.72475,7.29067 -6.72475,7.92711 0,0.63642 -0.38445,1.15713 -0.85433,1.15713 -0.46989,0 -2.8318,3.98451 -5.2487,8.85446 -2.41689,4.86996 -5.47529,9.8585 -6.79643,11.08566 -2.94412,2.73469 -9.66002,12.99085 -12.27239,18.74175 -1.06071,2.33507 -2.47307,6.58064 -3.13858,9.43461 -0.66551,2.85396 -2.34552,6.88726 -3.73336,8.96286 -3.51383,5.25518 -6.16621,11.35609 -7.588164,17.45402 -0.665508,2.85396 -2.329059,6.88726 -3.696783,8.96287 -4.911968,7.45424 -8.561572,17.81892 -8.561572,24.3144 0,2.90008 -0.915419,5.39434 -4.83542,13.17533 -0.453938,0.90111 -0.825341,2.46809 -0.825341,3.48231 0,1.01422 -0.424557,2.10647 -0.94346,2.42715 -0.530948,0.32813 -0.94346,4.8658 -0.94346,10.37806 0,5.51226 -0.412513,10.04993 -0.94346,10.37807 -0.518904,0.32067 -0.943461,1.59435 -0.943461,2.83037 0,1.23603 -0.424557,2.50969 -0.94346,2.83039 -0.530947,0.3282 -0.94346,4.8659 -0.94346,10.3781 0,5.5123 -0.412512,10.0499 -0.94346,10.378 -0.518903,0.3208 -0.943461,1.5944 -0.943461,2.8305 0,1.2359 -0.424557,2.5097 -0.94346,2.8303 -0.529598,0.3273 -0.94346,4.8214 -0.94346,10.2451 0,6.4716 -0.389409,10.0513 -1.179325,10.8412 -0.918776,0.9188 -1.179325,14.457 -1.179325,61.2778 v 60.0984 l 2.122785,3.5667 c 1.721925,2.8932 2.122785,4.976 2.122785,11.0299 0,4.1048 0.424558,7.7257 0.943461,8.0465 0.552923,0.3417 0.94346,5.8092 0.94346,13.2084 0,7.3992 0.390537,12.8668 0.94346,13.2085 0.552924,0.3417 0.94346,5.8093 0.94346,13.2084 0,7.3992 0.390537,12.8667 0.943461,13.2085 0.518903,0.3206 0.94346,1.5345 0.94346,2.6972 0,1.163 0.402383,2.5177 0.894183,3.0107 0.491802,0.4929 0.968816,5.2554 1.060032,10.5831 0.09121,5.3278 0.537948,9.9168 0.992737,10.1979 0.454789,0.281 0.826889,1.3408 0.826889,2.3551 0,1.0142 0.424557,2.6873 0.94346,3.7182 0.518903,1.0307 1.368017,2.7174 1.88692,3.7481 0.518903,1.0308 0.94346,4.2393 0.94346,7.1299 0,5.5138 1.570777,13.4811 2.958654,15.0071 0.448353,0.4929 0.820227,4.5263 0.826385,8.9629 0.0061,4.4366 0.602698,10.2884 1.325643,13.004 1.43063,5.3739 7.903725,19.1208 9.003503,19.1208 0.374503,0 1.210884,2.4412 1.858634,5.4248 1.48576,6.844 7.6099,19.2216 12.2535,24.766 1.9557,2.335 4.11469,5.9437 4.79776,8.0193 2.59121,7.8739 9.5099,18.6052 16.23161,25.1764 2.48685,2.4311 4.52154,4.878 4.52154,5.4375 0,0.984 1.86658,4.7471 2.83189,5.7094 0.26028,0.2594 1.07499,1.6392 1.81048,3.0661 0.73549,1.427 1.69006,2.5946 2.12128,2.5946 0.43122,0 0.78403,0.5856 0.78403,1.3014 0,0.7158 1.59209,2.9796 3.53798,5.0306 4.03873,4.2568 5.89662,7.1626 5.89662,9.2222 0,0.7855 0.42456,1.428 0.94346,1.428 0.5189,0 0.94346,0.8492 0.94346,1.887 0,1.0378 0.42456,1.8869 0.94346,1.8869 0.51891,0 0.94347,0.5567 0.94347,1.2372 0,0.6806 0.84911,2.1488 1.88692,3.2628 1.0378,1.1139 1.88691,2.4165 1.88691,2.8944 0,0.4781 1.5921,2.5474 3.53798,4.5983 4.03873,4.2569 5.89662,7.1627 5.89662,9.2223 0,0.7855 0.42456,1.4281 0.94346,1.4281 0.51891,0 0.94346,0.849 0.94346,1.8869 0,1.0378 0.42456,1.8869 0.94346,1.8869 0.51891,0 0.94347,0.4542 0.94347,1.0093 0,1.9678 6.14114,9.927 12.46126,16.1504 3.52437,3.4705 6.40794,6.9731 6.40794,7.7836 0,0.8105 0.42456,1.4736 0.94346,1.4736 0.5189,0 0.94346,0.4542 0.94346,1.0094 0,3.1757 10.2862,15.3862 16.74642,19.8791 2.20534,1.5338 4.0097,3.212 4.0097,3.7294 0,2.092 9.59403,14.8798 14.99303,19.9841 3.16971,2.9967 5.7631,5.8858 5.7631,6.4203 0,1.3769 7.24502,12.0533 10.74403,15.8326 1.61488,1.7442 5.16507,4.8356 7.88931,6.8698 2.72424,2.0342 4.95317,4.1498 4.95317,4.7014 0,2.2139 8.88437,14.0464 14.63765,19.4951 3.36516,3.187 6.11847,6.2528 6.11847,6.813 0,1.9343 9.19037,14.6251 13.31585,18.3876 2.27599,2.0758 6.903,5.5626 10.28225,7.7483 3.37925,2.1858 6.96428,5.3626 7.96674,7.0597 2.61621,4.4288 8.7843,10.8951 13.46379,14.1147 2.21722,1.5256 4.0313,3.1969 4.0313,3.7144 0,1.8673 9.27087,14.6209 13.31586,18.3181 2.27598,2.0802 6.34012,5.1852 9.03142,6.9 3.05775,1.9481 6.06269,4.953 8.01086,8.0108 4.66997,7.3299 9.93683,12.6756 17.2866,17.5456 6.31078,4.1816 7.68683,4.9221 14.1519,7.6152 3.75362,1.5636 3.8326,1.6114 12.09637,7.3287 3.93765,2.7243 7.58317,4.9532 8.10116,4.9532 0.518,0 1.67899,1.5921 2.57999,3.5379 2.46643,5.3267 10.10618,16.3544 13.68342,19.7514 3.46996,3.2954 15.55754,11.6187 16.87308,11.6187 0.45336,0 2.0792,1.8043 3.61295,4.0097 1.53376,2.2053 4.41992,5.544 6.41369,7.4193 4.04202,3.8018 14.79256,11.2141 16.26464,11.2141 0.52246,0 2.2048,1.8043 3.73855,4.0096 1.53378,2.2054 4.41993,5.5441 6.4137,7.4193 4.04202,3.8019 14.79255,11.214 16.26463,11.214 0.52246,0 2.20481,1.8045 3.73856,4.0098 4.49294,6.4603 16.70337,16.7464 19.87917,16.7464 0.55514,0 1.00933,0.4246 1.00933,0.9435 0,0.5189 0.84912,0.9434 1.88692,0.9434 1.03781,0 1.88693,0.4246 1.88693,0.9435 0,0.5189 0.82405,0.9434 1.83123,0.9434 1.00719,0 2.09363,0.4246 2.41434,0.9435 0.3207,0.5189 1.59437,0.9434 2.83038,0.9434 1.23601,0 2.50968,0.4246 2.83037,0.9435 0.32071,0.519 1.84946,0.9435 3.39725,0.9435 1.54778,0 3.72556,0.8491 4.83951,1.8869 1.11397,1.0378 2.58216,1.8869 3.26267,1.8869 0.68051,0 1.23729,0.4246 1.23729,0.9435 0,0.5188 0.84911,0.9434 1.88693,0.9434 1.0378,0 1.88691,0.4246 1.88691,0.9435 0,0.5188 0.82406,0.9434 1.83123,0.9434 1.00719,0 2.09364,0.4246 2.41434,0.9436 0.3207,0.5188 1.59437,0.9434 2.83038,0.9434 1.23601,0 2.50968,0.4246 2.83038,0.9435 0.3207,0.5188 2.17163,0.9434 4.11316,0.9434 3.59294,0 8.60285,1.7828 8.6162,3.0662 0.004,0.3892 0.85647,0.7076 1.89428,0.7076 1.0378,0 1.88692,0.4246 1.88692,0.9435 0,0.5189 0.82405,0.9435 1.83124,0.9435 1.00718,0 2.09362,0.4245 2.41433,0.9435 0.3207,0.5188 1.59437,0.9434 2.83038,0.9434 1.23601,0 2.50968,0.4246 2.83037,0.9435 0.32071,0.5188 2.044,0.9434 3.82953,0.9434 1.78554,0 3.24643,0.3631 3.24643,0.8068 0,1.0538 15.08833,8.6458 17.16247,8.6356 0.87745,0 1.85776,0.4168 2.17847,0.9356 0.3207,0.5189 2.19761,0.9435 4.17091,0.9435 2.33406,0 6.15162,1.3188 10.92445,3.7739 4.03514,2.0756 8.10202,3.7738 9.03753,3.7738 0.93549,0 1.92584,0.364 2.20075,0.8088 0.27492,0.4448 2.57865,1.055 5.1194,1.3559 2.57866,0.3054 7.41882,2.032 10.95571,3.9085 3.48489,1.8487 7.12496,3.3614 8.08905,3.3614 0.96408,0 1.9846,0.3749 2.26782,0.8332 0.28322,0.4583 2.83372,1.1229 5.66778,1.4769 2.83408,0.3543 6.12999,1.3702 7.32429,2.2581 4.58247,3.4062 13.81402,6.6408 21.04065,7.3721 2.59451,0.2627 6.41552,1.2699 8.49114,2.2382 5.8957,2.7507 12.7744,4.7883 17.92574,5.3095 2.59451,0.2626 6.41553,1.2698 8.49114,2.2382 7.20606,3.3621 13.24943,4.9371 20.75613,5.4095 4.15122,0.2613 7.75996,0.7581 8.01941,1.104 0.97645,1.3022 11.07155,4.0301 16.74642,4.5252 3.24314,0.283 5.89662,0.881 5.89662,1.3288 0,0.4479 0.81374,0.8143 1.80831,0.8143 0.99455,0 1.94981,0.3411 2.12278,0.7581 0.36794,0.8868 12.81879,4.9027 15.2006,4.9027 0.89344,0 1.62444,0.3631 1.62444,0.8068 0,0.8485 13.87976,7.9491 17.92574,9.1705 2.54602,0.7686 21.07475,2.0341 41.51226,2.8354 7.00518,0.2746 13.14003,0.9005 13.63299,1.391 0.49296,0.4904 4.00132,0.8917 7.79635,0.8917 3.79503,0 7.63728,0.375 8.53832,0.8333 2.93,1.4905 6.31501,2.8341 8.24247,3.2714 1.03781,0.2355 27.87009,0.3636 59.62729,0.2845 44.77788,-0.1114 58.00498,-0.4084 58.91908,-1.323 z"
       id="path26"
       sodipodi:nodetypes="ccsssssssscsscssssssssssssssssssssscssscsssssssssssssssssssssssssssssssssssssssssssssssssssssssssssssssssssssssssssssssssssssssssssssssssssssssssssssssssscssssscsssssssssssssscssssssssssssssssscscsssssssssssssssssssssssssssssssssssssssssssssssssssssssssssssssssssssssssssssssssssssssssssscssssssssssssssssssssssssssssssssssssssssssssssssssssssssssssssssssssssssssssssssssssssscssssssssssssssssssssssssscssssssssssssssssssssssssssssssssssssssssssssssssssssssssssssssssssssssssssssssssssssssssssssssssssssssssscsssssssssssssssssssssssssssssss" />
    <path
       style="fill:#ffffff;fill-opacity:1;stroke-width:0.94346"
       d="m 888.89858,1917.9102 c 0,-0.5189 -1.00801,-0.9435 -2.24002,-0.9435 -1.23202,0 -4.09778,-0.6837 -6.36836,-1.5193 -6.60659,-2.4312 -13.6131,-3.1583 -57.43383,-5.959 -16.42769,-1.0501 -24.73869,-3.0887 -33.36134,-8.1831 -5.3646,-3.1697 -8.8294,-4.7042 -13.81167,-6.1178 -2.33507,-0.6625 -6.08619,-2.0409 -8.33583,-3.0629 -2.24964,-1.022 -5.00927,-1.9184 -6.13249,-1.9919 -3.70084,-0.2423 -9.49184,-1.6146 -16.19414,-3.8376 -3.63232,-1.2048 -9.57612,-2.4347 -13.20844,-2.7329 -5.80143,-0.4765 -15.67787,-3.3165 -20.89318,-6.0083 -0.96243,-0.4966 -4.08493,-1.1921 -6.93889,-1.5453 -5.05663,-0.6259 -14.12034,-3.3858 -18.86921,-5.7458 -1.29726,-0.6446 -4.76923,-1.4652 -7.71549,-1.8235 -5.81982,-0.7076 -16.2082,-4.1771 -20.9288,-6.9899 -1.6289,-0.9705 -6.1458,-2.5009 -10.03758,-3.4007 -3.89177,-0.8999 -10.06927,-3.0584 -13.72776,-4.7968 -3.6585,-1.7384 -10.02685,-4.0481 -14.15191,-5.1328 -4.12504,-1.0848 -10.04743,-3.2041 -13.16084,-4.7096 -3.11343,-1.5055 -9.05723,-3.6391 -13.20845,-4.7414 -7.4903,-1.9886 -13.50376,-4.5161 -20.75612,-8.7237 -2.07562,-1.2042 -5.89663,-2.7193 -8.49114,-3.3671 -2.59452,-0.6477 -7.26465,-2.4115 -10.37807,-3.9194 -3.11342,-1.508 -9.05722,-3.6436 -13.20844,-4.7459 -7.23711,-1.9214 -11.99184,-3.9001 -21.22786,-8.8338 -2.33507,-1.2473 -7.4297,-3.227 -11.32141,-4.3993 -9.03598,-2.7219 -18.8928,-9.3308 -26.09317,-17.495 -3.16538,-3.5891 -8.74667,-8.3616 -13.10719,-11.2077 -4.48236,-2.9255 -10.08814,-7.7465 -13.68017,-11.7649 -3.54818,-3.9692 -8.24955,-8.0226 -11.27488,-9.7209 -2.85397,-1.602 -9.01004,-6.8127 -13.68017,-11.5793 -4.67013,-4.7666 -10.61393,-9.8911 -13.20845,-11.3879 -5.65402,-3.2615 -18.28607,-15.6101 -20.69541,-20.2308 -0.94697,-1.8161 -2.49007,-4.8208 -3.42908,-6.6772 -1.43168,-2.8302 -7.99228,-8.4181 -9.88348,-8.4181 -0.30556,0 -2.8268,-1.8502 -5.60273,-4.1114 -2.77594,-2.2612 -7.30265,-4.8491 -10.05936,-5.7508 -2.75671,-0.9016 -6.14778,-2.448 -7.53571,-3.4362 -1.38792,-0.9883 -2.89924,-1.7969 -3.35846,-1.7969 -1.54209,0 -14.00184,-12.0004 -16.78295,-16.1641 -4.02936,-6.0324 -6.1801,-8.3106 -10.36622,-10.9803 -6.06379,-3.867 -13.42393,-11.3643 -18.05021,-18.3866 -2.37361,-3.6029 -8.52382,-10.7267 -13.66717,-15.8306 -5.14334,-5.1039 -9.35569,-9.8372 -9.36078,-10.5182 -0.005,-0.6811 -3.02508,-3.149 -6.7111,-5.4841 -6.69542,-4.2414 -17.55809,-14.9277 -19.98855,-19.6639 -3.44394,-6.7112 -5.65562,-9.663 -12.21293,-16.3001 -3.90619,-3.9536 -7.87796,-8.8233 -8.82615,-10.8215 -0.9482,-1.9982 -6.01072,-7.8913 -11.25004,-13.0959 -6.46211,-6.4192 -10.70899,-11.5871 -13.20392,-16.0671 -2.10955,-3.7881 -5.87528,-8.6157 -8.83112,-11.3214 -2.83431,-2.5946 -7.16954,-7.801 -9.63388,-11.5698 -2.46434,-3.7689 -8.24238,-10.5618 -12.84009,-15.0954 -5.31956,-5.2453 -9.71973,-10.6418 -12.10008,-14.8396 -2.05733,-3.6281 -6.02345,-8.7228 -8.8136,-11.3215 -5.84165,-5.4407 -13.42948,-16.2415 -15.1941,-21.6278 -0.66571,-2.032 -2.78402,-5.4284 -4.70737,-7.5477 -4.79488,-5.2833 -10.68254,-14.3093 -12.66779,-19.4203 -0.90702,-2.335 -3.0433,-5.7315 -4.7473,-7.5477 -3.72234,-3.9673 -7.99789,-10.2557 -10.90506,-16.0388 -1.17382,-2.335 -4.18119,-6.4251 -6.68302,-9.089 -5.83873,-6.2171 -11.598279,-15.1463 -14.124108,-21.8972 -1.093985,-2.924 -3.409487,-7.0496 -5.145564,-9.1684 -4.537841,-5.5378 -9.438789,-14.9554 -11.753599,-22.5854 -1.10197,-3.6324 -3.41868,-8.9849 -5.148248,-11.8944 -5.227083,-8.793 -9.032139,-22.1222 -9.074131,-31.7867 -0.01511,-3.4773 -0.851862,-9.2943 -1.85945,-12.9266 -1.007588,-3.6323 -1.84434,-8.3809 -1.85945,-10.5524 -0.0151,-2.1717 -0.470036,-5.1124 -1.010948,-6.5352 -2.544176,-6.6917 -4.677284,-16.9412 -4.677284,-22.4743 0,-3.3571 -0.704332,-8.5658 -1.565181,-11.5748 -0.860851,-3.0089 -1.922244,-11.5208 -2.358651,-18.9152 -2.448743,-41.4909 -3.32812,-50.0956 -5.809207,-56.8434 -0.858563,-2.3351 -1.567201,-5.1758 -1.574753,-6.3128 -0.0075,-1.1368 -0.438287,-2.3295 -0.95719,-2.6501 -1.271023,-0.7856 -1.214885,-19.9013 0.06547,-22.2937 0.725974,-1.3565 0.709629,-2.2458 -0.05828,-3.1711 -0.722082,-0.87 -0.918381,-4.8932 -0.606997,-12.4405 0.558408,-13.5347 0.558408,-11.605 0,-25.1397 -0.311384,-7.5473 -0.115085,-11.5705 0.606997,-12.4405 0.76791,-0.9253 0.784254,-1.8146 0.05828,-3.1712 -1.21446,-2.2692 -1.361225,-21.4928 -0.169711,-22.2292 1.09383,-0.676 1.940279,-5.5241 2.893874,-16.5749 0.425381,-4.9295 1.292832,-10.8734 1.927668,-13.2085 0.634835,-2.335 1.483949,-8.27882 1.88692,-13.2084 0.402971,-4.92958 1.248568,-10.87338 1.879107,-13.20844 0.630537,-2.33507 1.471065,-8.49114 1.867838,-13.68017 0.750857,-9.81975 2.564546,-17.6894 5.721722,-24.82671 1.01907,-2.30378 1.852856,-4.99164 1.852856,-5.97303 0,-2.34985 3.467088,-15.22799 5.245854,-19.48517 0.770445,-1.84394 2.58796,-5.29455 4.038922,-7.66804 1.450962,-2.37348 3.759034,-7.92416 5.12905,-12.33484 1.370015,-4.41068 3.923823,-10.39497 5.675128,-13.29842 1.751306,-2.90345 4.298649,-8.84725 5.660762,-13.20845 2.744356,-8.78683 7.365129,-17.09456 12.768373,-22.95639 1.954866,-2.12078 5.372971,-7.61332 7.595791,-12.20566 3.07574,-6.35448 5.79179,-10.18543 11.36626,-16.03196 5.30121,-5.55994 8.27697,-9.68055 10.77145,-14.91547 4.13833,-8.68473 10.68955,-16.11582 18.95533,-21.50119 4.15167,-2.70493 7.09428,-5.53309 9.20653,-8.84846 1.70748,-2.68008 4.80659,-6.73503 6.8869,-9.01102 3.88136,-4.24644 14.41886,-11.76856 20.29294,-14.48596 1.81616,-0.84018 5.28766,-3.43103 7.71445,-5.75743 4.52137,-4.33433 13.5523,-10.71558 17.75897,-12.54845 8.18946,-3.56818 13.53468,-5.05398 18.18191,-5.05398 1.83665,0 5.18385,-0.9094 7.43823,-2.02088 2.25436,-1.11149 4.94797,-2.32634 5.98578,-2.69966 5.19509,-1.86878 8.82491,-2.82714 10.70781,-2.82714 1.1455,0 4.5118,-1.21679 7.4807,-2.70398 10.00362,-5.01103 16.78205,-6.86259 27.92244,-7.62717 5.97807,-0.41028 11.60718,-1.29919 12.90767,-2.0383 3.27098,-1.85897 55.02059,-1.91678 58.26822,-0.0651 1.20158,0.68512 7.56093,1.6526 14.13191,2.14998 6.57099,0.49738 12.35955,1.31664 12.86351,1.82059 0.50395,0.50396 1.68623,0.91627 2.6273,0.91627 0.94106,0 2.44823,0.39356 3.34927,0.87459 2.98208,1.59199 5.34545,2.08646 11.83626,2.47639 9.80895,0.58927 17.50944,3.524 28.50504,10.86354 7.61942,5.08596 11.43896,9.06383 17.60503,18.33486 2.41582,3.63232 5.79935,7.42962 7.51895,8.43847 8.98983,5.27401 19.07941,18.46109 23.50052,30.71513 0.65526,1.81616 1.91105,4.15123 2.79067,5.18903 2.29796,2.71125 8.80902,12.79197 10.05464,15.56709 1.55779,3.47058 2.90911,7.47799 4.13293,12.25633 0.59681,2.33031 1.89035,5.36775 2.8745,6.74986 0.98416,1.38212 1.78938,2.97811 1.78938,3.54663 0,0.56854 0.42456,1.03369 0.94346,1.03369 0.5189,0 0.94346,0.84911 0.94346,1.88692 0,1.0378 0.33045,1.88692 0.73436,1.88692 1.07507,0 4.20499,11.03193 4.68428,16.51055 0.22697,2.59451 1.60109,7.26464 3.0536,10.37806 1.45251,3.11343 3.17991,8.10197 3.83869,11.08566 0.65878,2.9837 1.46859,5.42489 1.79958,5.42489 1.07748,0 7.69568,13.90981 9.06401,19.0503 0.73317,2.75437 1.33809,6.58712 1.34425,8.51722 0.007,1.93011 0.82883,4.96502 1.82815,6.74424 5.24368,9.3359 6.43886,19.57135 7.23051,61.92119 0.22795,12.19422 0.78612,23.02043 1.24037,24.05824 2.37071,5.41621 2.92157,11.10443 2.93433,30.30013 0.0111,16.6667 0.30941,21.4651 1.54753,24.8922 0.84359,2.3351 1.82044,8.7035 2.17077,14.152 0.35034,5.4484 1.30387,11.7145 2.11895,13.9247 1.0002,2.7121 1.53341,7.7471 1.64019,15.4882 0.087,6.3085 0.51355,12.1422 0.94783,12.964 0.43428,0.8217 0.85884,6.7655 0.94346,13.2085 0.0846,6.4428 0.55122,12.4568 1.03689,13.3644 0.48567,0.9074 1.06922,4.7639 1.29678,8.5698 0.41631,6.9632 0.894,9.3151 2.50465,12.3321 0.48103,0.9011 0.87459,2.4083 0.87459,3.3493 0,0.9411 0.42165,2.1327 0.937,2.648 0.51535,0.5154 1.30708,6.2525 1.7594,12.7492 0.45232,6.4967 1.24529,12.6346 1.76215,13.6395 0.51685,1.0049 1.17684,3.3729 1.46666,5.2621 0.69923,4.5581 7.53069,18.7622 10.15599,21.1164 3.96192,3.5527 11.03556,15.1142 13.55487,22.1546 1.39173,3.8893 4.32131,9.831 6.51019,13.2039 2.18888,3.3729 4.44714,7.1939 5.01838,8.4911 2.85165,6.4761 3.85378,7.8786 7.29654,10.2121 2.04873,1.3886 4.1891,3.3737 4.75637,4.4116 0.56728,1.0378 1.24369,2.0991 1.50314,2.3586 0.59414,0.5941 2.58922,4.0887 5.11703,8.9629 1.07644,2.0756 7.14317,9.0808 13.48163,15.5671 6.33845,6.4863 12.7459,13.4915 14.23877,15.5671 2.84939,3.9617 15.74638,16.5105 16.96852,16.5105 0.39087,0 4.52234,3.7358 9.18106,8.302 4.65871,4.5659 10.02297,9.0249 11.92055,9.9088 1.89758,0.8839 7.84138,5.9897 13.20844,11.3464 7.52466,7.5101 11.20238,10.4248 16.0672,12.7341 3.4699,1.6472 6.69723,2.9948 7.17186,2.9948 0.47463,0 3.7779,2.5733 7.34063,5.7184 3.56274,3.1452 9.33677,7.1013 12.8312,8.7917 3.90871,1.8907 8.91356,5.4989 13.00648,9.3769 3.65912,3.467 7.04573,6.3038 7.52575,6.3038 0.48005,0 1.43384,0.5307 2.11953,1.1792 2.35102,2.224 7.97774,4.3183 22.47457,8.3653 2.33506,0.6518 5.30696,1.8737 6.60422,2.7151 2.13596,1.3857 7.91057,3.3449 19.81267,6.7221 2.33506,0.6626 5.27922,1.8576 6.54257,2.6556 3.23704,2.0448 14.19292,5.6696 17.22412,5.6986 1.39635,0.013 2.80122,0.4489 3.12192,0.9678 0.3207,0.519 2.04975,0.9435 3.84233,0.9435 3.12969,0 3.94493,0.253 8.64572,2.6832 1.16049,0.5998 2.9398,1.0907 3.95402,1.0907 1.01423,0 2.10644,0.4245 2.42714,0.9434 0.3207,0.5189 1.39423,0.9435 2.38563,0.9435 0.9914,0 3.40755,0.9145 5.36921,2.0322 1.96168,1.1177 5.26491,2.869 7.34052,3.892 2.07561,1.0228 4.51105,2.2311 5.4121,2.685 0.90104,0.4539 2.46807,0.8254 3.48229,0.8254 1.01423,0 2.10643,0.4245 2.42714,0.9434 0.32069,0.519 2.01892,0.9435 3.77383,0.9435 1.75491,0 3.45314,0.4245 3.77385,0.9435 0.32069,0.5189 3.29259,0.9435 6.60421,0.9435 3.31163,0 6.28353,0.4245 6.60423,0.9434 0.3207,0.5189 1.59437,0.9435 2.83037,0.9435 1.23601,0 2.50969,0.4245 2.83039,0.9434 0.3207,0.5189 2.01892,0.9435 3.77384,0.9435 1.75491,0 3.45314,0.4245 3.77384,0.9434 0.3207,0.5189 3.2926,0.9435 6.60422,0.9435 3.31163,0 6.28353,0.4245 6.60422,0.9434 0.32071,0.519 1.59438,0.9436 2.83038,0.9436 1.23601,0 2.48197,0.3797 2.76879,0.8437 0.84284,1.3637 7.87332,2.195 17.98734,2.1269 5.18903,-0.035 11.13283,-0.034 13.20844,0 15.71371,0.2743 22.26519,0.01 25.94516,-1.0537 2.33506,-0.6738 10.08321,-1.5936 17.21811,-2.0439 7.135,-0.4503 18.8102,-1.1872 25.9452,-1.6374 12.5729,-0.7936 16.8964,-1.5083 23.8224,-3.9382 1.8161,-0.6372 6.0617,-1.5131 9.4345,-1.9465 11.5516,-1.4844 14.1644,-1.9881 14.6852,-2.8308 0.2869,-0.4641 4.5047,-0.8439 9.373,-0.8439 4.8835,0 9.1129,-0.423 9.4346,-0.9435 0.3208,-0.5188 2.019,-0.9434 3.7739,-0.9434 1.7549,0 3.4532,-0.4246 3.7738,-0.9434 0.3218,-0.5205 4.5513,-0.9435 9.4346,-0.9435 4.8834,0 9.1129,-0.423 9.4346,-0.9434 0.3208,-0.519 2.0189,-0.9435 3.7739,-0.9435 1.7549,0 3.4531,-0.4246 3.7738,-0.9435 0.3208,-0.5189 1.413,-0.9435 2.4272,-0.9435 1.0142,0 2.6874,-0.4246 3.7182,-0.9434 1.0307,-0.5189 2.7174,-1.3681 3.7482,-1.8869 1.0308,-0.5189 3.3408,-0.9435 5.1333,-0.9435 1.7926,0 3.5216,-0.4246 3.8424,-0.9434 0.3206,-0.5189 2.0188,-0.9435 3.7738,-0.9435 1.755,0 3.4531,-0.4246 3.7738,-0.9434 0.3207,-0.519 1.4277,-0.9436 2.4599,-0.9436 1.0322,0 3.6343,-0.849 5.7823,-1.8869 2.148,-1.0377 4.9632,-1.8869 6.2558,-1.8869 1.2928,0 3.6541,-0.3938 5.2477,-0.8751 1.5936,-0.4812 6.0816,-1.8314 9.9733,-3.0002 3.8918,-1.1689 7.4793,-2.4733 7.9722,-2.8988 0.4931,-0.4255 1.9489,-0.7736 3.2352,-0.7736 1.2864,0 3.6427,-0.3938 5.2362,-0.8751 1.5935,-0.4812 6.0815,-1.8314 9.9734,-3.0002 3.8917,-1.1689 7.4792,-2.4733 7.9721,-2.8988 0.493,-0.4255 1.9489,-0.7736 3.2352,-0.7736 1.2864,0 3.6427,-0.3938 5.2362,-0.8751 1.5936,-0.4811 6.0815,-1.8338 9.9733,-3.0058 3.8917,-1.1718 7.5613,-2.4906 8.1545,-2.9306 0.5932,-0.4399 2.5037,-0.9729 4.2456,-1.1844 7.7912,-0.9462 17.159,-3.8874 25.8256,-8.1085 3.1219,-1.5206 6.4901,-2.7648 7.4849,-2.7648 1.8843,0 11.5271,-3.0886 15.6143,-5.0016 2.6928,-1.2601 7.1372,-4.1434 9.9064,-6.4266 1.0377,-0.8556 4.6465,-2.4995 8.0194,-3.653 9.1248,-3.1208 15.7787,-7.129 22.8113,-13.7415 3.8522,-3.6221 8.8018,-7.1095 12.7367,-8.974 4.8894,-2.3167 8.491,-5.1132 14.9879,-11.6377 4.7035,-4.7237 9.2434,-10.0877 10.0886,-11.9203 1.9853,-4.3043 4.795,-7.5178 6.5731,-7.5178 1.9082,0 15.3831,-13.3763 17.3343,-17.2074 2.0066,-3.9399 7.499,-11.6995 10.8597,-15.342 1.4362,-1.5567 3.5091,-4.9345 4.6064,-7.5062 2.6202,-6.1406 8.6425,-15.0241 13.806,-20.3655 2.2784,-2.3567 5.4501,-6.8146 7.0483,-9.9062 1.5982,-3.0918 3.4677,-6.2581 4.1543,-7.0365 0.6867,-0.7784 1.4559,-2.6889 1.7093,-4.2455 1.1,-6.7581 5.6802,-16.9567 10.5928,-23.5866 1.1534,-1.5567 3.0585,-5.5785 4.2333,-8.9373 2.1207,-6.0628 5.7491,-13.35 7.9986,-16.0643 0.6452,-0.7784 1.6992,-3.7503 2.3422,-6.6043 0.6432,-2.8539 2.6522,-8.1609 4.4647,-11.7932 1.8126,-3.6324 3.9247,-9.5761 4.6938,-13.2085 0.7691,-3.6323 2.6349,-9.1453 4.1464,-12.2509 1.5114,-3.1057 2.7532,-7.139 2.7594,-8.9629 0.016,-4.8931 2.2111,-12.2998 5.94,-20.0468 1.8148,-3.7707 3.5618,-8.3417 3.8821,-10.1579 0.9638,-5.465 3.743,-14.152 4.5277,-14.152 0.4038,0 0.7344,-0.8491 0.7344,-1.8869 0,-1.0378 0.3184,-1.8902 0.7075,-1.8943 0.3892,0 1.1828,-0.9592 1.7634,-2.1227 0.5807,-1.1635 1.8367,-3.6014 2.7911,-5.4176 1.3407,-2.5513 1.8763,-6.4126 2.3554,-16.9822 0.6267,-13.8261 1.998,-20.2704 5.7782,-27.1532 1.2477,-2.2721 1.7002,-5.1569 1.7018,-10.8498 v -7.7549 l -6.84,0.3225 c -3.762,0.1772 -7.0532,0.6229 -7.3139,0.9901 -1.1126,1.5674 -11.4266,4.1299 -18.3996,4.5712 -4.1513,0.2628 -7.9723,0.8046 -8.4912,1.204 -0.5189,0.3995 -3.0663,1.4992 -5.6608,2.4439 -3.8734,1.4104 -8.8522,1.8205 -27.8321,2.2925 -17.7087,0.4403 -24.3775,0.9506 -28.5144,2.1816 -4.887,1.4544 -10.4413,1.5662 -58.4945,1.178 -54.6367,-0.4415 -76.7117,-1.338 -83.2856,-3.3828 -2.0756,-0.6456 -8.2317,-1.4904 -13.6802,-1.8774 -10.3643,-0.7361 -16.1328,-2.3008 -23.3629,-6.3373 -2.3774,-1.3273 -7.3273,-3.0326 -11.0001,-3.7896 -3.6726,-0.7571 -9.2185,-2.613 -12.3242,-4.1245 -3.1057,-1.5114 -7.139,-2.7532 -8.9628,-2.7594 -1.8239,-0.01 -5.5202,-0.5979 -8.2138,-1.3151 -5.3989,-1.4373 -5.0239,-1.6236 -9.3803,4.6574 -2.4919,3.5928 -6.0066,10.4381 -6.0066,11.6988 0,1.5332 -4.3638,10.619 -6.87,14.3036 -1.2675,1.8635 -2.8354,5.6846 -3.4843,8.4911 -1.1831,5.1171 -8.3171,20.6699 -9.4812,20.6699 -0.3411,0 -1.1592,2.4413 -1.818,5.425 -0.6588,2.9837 -2.3829,7.9723 -3.8313,11.0857 -1.4484,3.1134 -2.8492,7.9957 -3.113,10.8498 -0.2637,2.8539 -1.1484,7.0995 -1.9659,9.4346 -0.8221,2.3481 -1.4926,7.3266 -1.5001,11.1396 -0.019,9.4165 -1.3635,15.1493 -5.5405,23.6217 -1.1115,2.2544 -2.0209,5.6015 -2.0209,7.4382 0,3.2792 -1.3287,9.2694 -2.8818,12.9929 -0.433,1.0378 -0.9565,6.1325 -1.1632,11.3215 -0.2181,5.4678 -1.0277,11.2196 -1.9258,13.6801 -1.2554,3.44 -1.5521,8.096 -1.5632,24.5362 -0.01,11.1599 -0.4162,21.6941 -0.9081,23.4093 -0.9498,3.3117 -0.1565,5.3025 5.5183,13.8465 1.3804,2.0783 3.0769,5.0522 3.7703,6.6089 0.6933,1.5567 1.6355,3.5676 2.0939,4.4687 0.4583,0.901 0.8334,2.2679 0.8334,3.0375 0,1.5201 2.5505,6.3389 6.5109,12.3018 1.3803,2.0782 3.0769,5.0522 3.7701,6.6089 0.6934,1.5567 1.6356,3.5676 2.0941,4.4686 0.4583,0.9011 0.8333,2.268 0.8333,3.0376 0,1.52 2.5504,6.3388 6.5109,12.3018 6.4442,9.7025 9.0286,19.0049 9.044,32.5541 0.017,15.267 -2.3461,23.3997 -10.2667,35.3307 -7.6695,11.553 -18.2175,19.8241 -31.3605,24.5913 -5.8115,2.1079 -7.9077,2.3463 -20.6289,2.3463 -12.7213,0 -14.8175,-0.2384 -20.629,-2.3463 -9.0722,-3.2906 -19.6495,-10.0681 -25.2479,-16.1776 -4.2147,-4.5995 -10.1742,-14.0243 -12.2263,-19.3358 -2.7364,-7.0821 -6.0042,-13.6215 -9.8405,-19.6914 -1.8035,-2.8539 -3.4235,-5.6135 -3.5996,-6.1324 -0.1762,-0.5189 -1.9824,0.7779 -4.0138,2.882 -4.0343,4.1784 -12.9518,10.4346 -18.59,13.0423 -1.9663,0.9093 -5.3847,3.4631 -7.5967,5.675 -8.2788,8.2789 -19.3086,14.4155 -29.86893,16.6183 -2.85396,0.5954 -7.94865,2.3667 -11.32152,3.9364 -12.72425,5.9219 -14.9474,6.5163 -26.63194,7.12 -14.96968,0.7733 -26.23302,-2.3425 -38.50668,-10.6523 -6.783,-4.5924 -9.8337,-7.4502 -14.03564,-13.1483 -5.37377,-7.2872 -7.45099,-11.0391 -9.99501,-18.053 -2.11311,-5.8257 -2.34638,-7.8953 -2.34638,-20.8177 0,-12.7386 0.25123,-15.0411 2.23867,-20.5164 6.10539,-16.8202 18.19985,-29.756 34.90086,-37.3285 3.18589,-1.4445 6.6406,-3.5721 7.67714,-4.7279 2.21068,-2.465 15.04905,-11.3 16.42032,-11.3 0.5174,0 2.19564,-1.8044 3.72939,-4.0097 4.92867,-7.0867 15.46425,-15.5495 24.66235,-19.8102 1.81616,-0.8413 4.78806,-3.0876 6.60421,-4.9918 3.45657,-3.6242 16.20941,-12.7006 17.84508,-12.7006 0.52145,0 3.74054,-2.9086 7.15368,-6.4635 3.4131,-3.555 7.1972,-6.9942 8.4091,-7.6429 1.671,-0.8943 2.3294,-2.2434 2.7251,-5.5842 0.2869,-2.4228 1.184,-6.3071 1.9933,-8.6319 0.8205,-2.3565 1.4777,-7.3662 1.4853,-11.3217 0.01,-4.1547 0.7958,-9.9168 1.9007,-13.9041 1.0378,-3.7451 1.8869,-9.6972 1.8869,-13.2271 0,-7.2672 1.8813,-15.446 5.1481,-22.3816 1.2221,-2.5945 2.4704,-7.0942 2.774,-9.9993 0.3036,-2.9051 1.1927,-7.098 1.9757,-9.3174 0.783,-2.2194 1.4237,-7.0768 1.4237,-10.7944 0,-7.435 1.7256,-15.1894 5.1573,-23.1758 1.2309,-2.8641 2.4881,-7.3303 2.7941,-9.9249 0.7795,-6.6114 3.8407,-15.3646 7.4969,-21.4361 1.7091,-2.8383 4.2216,-8.729 5.5831,-13.0902 1.3614,-4.3611 4.1916,-10.7719 6.289,-14.246 2.0977,-3.4743 3.8138,-6.8725 3.8138,-7.5519 0,-3.08997 5.2364,-15.2107 9.9318,-22.98934 2.84,-4.70475 5.1636,-9.04429 5.1636,-9.64358 0,-0.59918 1.0123,-3.37881 2.2498,-6.17683 l 2.2499,-5.08732 -6.2492,-4.1087 c -3.4372,-2.25976 -7.8984,-5.59842 -9.9137,-7.41922 -3.8281,-3.4584 -11.4134,-14.1923 -14.0369,-19.86346 -0.8403,-1.81617 -3.431,-5.28767 -5.7574,-7.71446 -7.3674,-7.6853 -12.8832,-16.77468 -16.2159,-26.72184 -0.8694,-2.59451 -2.5361,-5.99097 -3.7042,-7.54768 -4.8702,-6.49078 -9.9272,-18.21326 -11.3173,-26.23419 -0.3423,-1.97512 -2.0131,-6.43297 -3.7128,-9.90632 -1.6997,-3.47336 -3.6221,-8.22571 -4.2719,-10.56078 -0.6495,-2.33505 -2.2719,-6.36835 -3.6052,-8.96286 -1.3331,-2.59452 -3.40152,-6.62781 -4.59641,-8.96288 -2.21977,-4.33785 -5.08676,-14.07205 -5.08676,-17.27072 0,-0.97841 -0.75826,-2.90586 -1.68502,-4.28322 -0.92685,-1.37735 -2.18326,-3.56568 -2.79208,-4.86294 -1.29622,-2.76195 -4.9575,-14.0741 -4.9575,-15.31706 0,-0.46944 -1.18055,-2.62825 -2.62338,-4.79734 -4.30306,-6.46903 -7.14793,-13.83845 -8.35149,-21.63396 -0.34048,-2.2052 -1.31602,-5.07085 -2.1679,-6.36811 -3.20315,-4.87785 -6.20173,-13.15087 -7.26671,-20.04878 -0.34047,-2.2052 -1.31601,-5.07085 -2.16789,-6.3681 -3.53617,-5.38498 -6.5836,-14.26034 -7.28876,-21.22786 -0.26257,-2.59452 -1.26976,-6.41553 -2.23816,-8.49114 -5.4115,-11.59859 -5.14037,-7.64729 -5.42299,-79.03273 -0.23335,-58.94136 -0.0973,-66.38968 1.30071,-71.23125 0.85872,-2.97383 1.87337,-9.86481 2.25479,-15.31329 0.80228,-11.46054 3.15515,-19.61683 7.62056,-26.41688 0.85188,-1.29727 1.82744,-4.16291 2.1679,-6.36812 1.20358,-7.79552 4.04844,-15.16492 8.35152,-21.63396 1.44285,-2.1691 2.62336,-4.27991 2.62336,-4.69067 0,-1.69652 4.25235,-14.22448 5.7518,-16.94552 3.39392,-6.15886 4.17255,-7.4553 4.75277,-7.91281 1.1899,-0.93825 4.23558,-7.1689 5.53425,-11.32152 0.73024,-2.33507 2.05051,-5.56722 2.93378,-7.18255 2.97983,-5.44907 4.14009,-7.43902 4.61391,-7.91281 2.25929,-2.25935 6.4688,-8.649 7.4586,-11.32152 3.2116,-8.67149 8.156,-16.58055 14.7456,-23.58651 2.6844,-2.85397 6.5325,-8.37321 8.5512,-12.26499 3.3982,-6.55096 16.2698,-21.69958 18.4378,-21.69958 1.5614,0 6.5751,-5.12358 8.0452,-8.22127 0.809,-1.70514 1.8473,-3.10026 2.307,-3.10026 0.4599,0 0.836,-0.56508 0.836,-1.25574 0,-1.75482 12.7493,-13.82005 18.16,-17.18561 2.4638,-1.53257 4.4804,-3.23715 4.4814,-3.78793 9e-4,-0.55078 0.8508,-1.91283 1.8886,-3.02679 1.0378,-1.11396 1.8869,-2.37293 1.8869,-2.79772 0,-1.50225 12.8092,-13.32186 17.9491,-16.56253 2.8669,-1.80749 6.0478,-4.50199 7.0684,-5.98775 3.9478,-5.74602 17.164,-17.85556 22.2128,-20.35267 2.8423,-1.40573 8.3831,-5.6513 12.3131,-9.4346 8.2625,-7.95416 9.3068,-8.73929 16.8768,-12.68983 1.2973,-0.67698 5.3405,-4.10427 8.9848,-7.61622 8.883,-8.56052 10.5334,-9.7329 20.7342,-14.72983 3.1135,-1.52511 7.1864,-4.09253 9.0509,-5.70536 6.1899,-5.35433 7.4754,-6.24484 13.7014,-9.49102 3.3991,-1.7723 8.4009,-5.26723 11.115,-7.7665 7.5384,-6.9415 8.7678,-7.79583 17.5328,-12.18367 4.4831,-2.24414 8.9745,-4.99653 9.9814,-6.11643 2.12,-2.3583 12.5735,-9.25323 17.3975,-11.47511 5.4533,-2.51172 11.4912,-4.28236 16.9823,-4.98004 2.8539,-0.36262 6.9454,-1.45035 9.092,-2.41719 7.3216,-3.29765 13.0115,-4.8517 18.7086,-5.10989 7.656,-0.34696 21.4382,-5.01637 30.3537,-10.28384 8.6917,-5.13529 16.8649,-7.1153 33.833,-8.19627 25.6267,-1.63255 37.7431,-3.11582 38.7492,-4.74364 0.7583,-1.22712 21.5131,-1.04821 22.7575,0.19618 0.7455,0.74552 1.5641,0.74552 2.9571,0 2.4218,-1.29613 21.5414,-1.37095 22.3346,-0.0874 0.3207,0.5189 1.5133,0.94964 2.6502,0.95719 2.6832,0.0179 9.0849,2.25665 16.3661,5.72364 3.1943,1.521 7.2277,3.01854 8.9629,3.32787 4.9922,0.88996 14.1163,4.22391 18.243,6.66598 5.3383,3.1591 8.5002,4.51608 16.0462,6.88639 3.6322,1.14097 9.3894,3.73623 12.7934,5.76727 3.404,2.03102 6.8024,3.69277 7.5517,3.69277 2.7148,0 14.2752,4.71526 19.5645,7.97996 2.9775,1.83786 6.044,3.34156 6.8144,3.34156 2.094,0 13.9103,4.43292 17.3,6.49016 1.6289,0.9886 4.4476,2.0852 6.2638,2.43692 10.8872,2.10842 20.6396,6.50465 28.3038,12.75887 2.335,1.90549 5.9438,4.12873 8.0194,4.94048 7.7678,3.038 11.7932,4.97462 11.7932,5.67378 0,0.3965 0.568,0.7209 1.2624,0.7209 0.6944,0 3.5602,2.10658 6.3683,4.68131 4.8388,4.43638 6.3176,5.35563 14.7765,9.18557 1.9459,0.88104 3.7502,1.83697 4.0098,2.12429 0.2594,0.28731 1.6236,1.11578 3.0314,1.84105 2.678,1.37949 13.5909,12.34313 17.936,18.01926 1.3903,1.81616 4.0343,4.9957 5.8756,7.06565 1.8412,2.06993 3.3476,4.29886 3.3476,4.95316 0,0.6543 0.3209,1.18963 0.7132,1.18963 0.3922,0 1.2769,1.27367 1.966,2.83039 0.6891,1.55671 1.8922,2.83038 2.6737,2.83038 1.9002,0 19.1771,17.34821 19.1771,19.25626 0,0.82493 0.4246,1.49987 0.9435,1.49987 0.5188,0 0.9434,0.6209 0.9434,1.37981 0,0.75888 4.5726,5.9597 10.1612,11.55738 7.8694,7.88213 10.8951,11.66709 13.4156,16.7818 1.8897,3.83493 5.8473,9.41671 9.4381,13.31148 3.4226,3.71231 7.763,9.77735 9.7207,13.58281 1.9452,3.78156 6.0444,9.55626 9.1094,12.83265 3.0648,3.27638 7.0775,8.62716 8.9169,11.8906 1.8394,3.26344 6.6682,9.35739 10.7305,13.5421 5.6998,5.87147 8.3287,9.53326 11.5144,16.03882 2.2705,4.63665 5.6883,10.15738 7.5949,12.2683 4.991,5.52567 9.8057,13.38171 11.7043,19.09758 0.9051,2.72526 2.5975,6.10937 3.7608,7.52026 5.1306,6.22288 9.8587,14.38602 11.868,20.49097 1.1957,3.63233 4.1668,9.57612 6.6026,13.20844 2.4359,3.63232 5.1353,8.74478 5.9985,11.36102 0.8634,2.61624 3.3133,7.07409 5.4442,9.90633 7.3969,9.83118 9.4476,14.2711 13.2725,28.73604 0.5489,2.07562 2.1476,6.10891 3.5527,8.96288 1.4052,2.85396 3.0157,6.88726 3.5791,8.96286 2.6662,9.82454 3.0604,11.79438 3.0604,15.293 0,2.0639 0.7723,6.04794 1.7162,8.85341 0.9439,2.80547 2.2406,7.64821 2.8814,10.76163 0.6409,3.11341 1.6085,6.93443 2.1503,8.49113 4.3731,12.56475 5.7741,17.80214 6.1836,23.11479 0.2598,3.37286 1.4887,9.02053 2.7309,12.55035 1.2421,3.52983 2.5297,8.8368 2.8612,11.79326 0.3316,2.95646 0.9762,5.85158 1.4326,6.4336 1.9587,2.49748 5.6602,15.50617 6.1418,21.58482 0.2878,3.63233 1.5702,9.57613 2.8498,13.20845 1.2796,3.63232 2.5533,9.57612 2.8304,13.20844 0.2771,3.63232 1.5183,9.49227 2.7579,13.0221 1.2398,3.52981 2.5174,8.83678 2.8395,11.79324 0.322,2.95647 1.1068,6.2245 1.7438,7.26231 2.2221,3.61965 5.7417,15.84112 6.6666,23.14803 0.2086,1.64899 0.7622,3.48363 1.2301,4.07697 2.6162,3.31773 6.7559,20.2563 6.7886,27.77758 0.015,3.47729 0.8518,9.29423 1.8595,12.92655 1.0076,3.63233 1.8443,9.20374 1.8594,12.38092 0.017,3.6374 0.7137,7.3279 1.8804,9.96539 3.1572,7.13731 4.9708,15.00696 5.7217,24.82671 0.3967,5.18903 1.2459,11.3451 1.8872,13.68017 0.641,2.33506 1.5073,9.97709 1.9249,16.98228 0.9997,16.7672 2.0933,25.01664 4.002,30.19073 0.8613,2.33507 1.5722,5.17577 1.5798,6.31268 0.01,1.1369 0.4384,2.32949 0.9572,2.65019 1.2836,0.79328 1.2088,19.91278 -0.087,22.33463 -0.7455,1.393 -0.7455,2.21153 0,2.95705 1.269,1.2691 1.4078,21.5893 0.1562,22.87196 -0.4811,0.49296 -1.1149,6.41553 -1.4085,13.16127 -0.9997,22.97081 -2.2336,38.67423 -3.3729,42.9274 -0.6253,2.3351 -1.4865,8.2789 -1.9136,13.2085 -0.427,4.9295 -1.276,10.8733 -1.8869,13.2084 -0.6107,2.3351 -1.4598,8.2788 -1.8869,13.2084 -0.427,4.9296 -1.302,10.8734 -1.9443,13.2085 -0.6423,2.335 -1.3319,11.1708 -1.5322,19.635 -0.3578,15.1027 -0.4164,15.4736 -3.1504,19.917 -1.5321,2.4901 -2.7963,5.1173 -2.809,5.8384 -0.013,0.721 -0.8619,3.818 -1.887,6.8821 -1.025,3.0643 -1.8637,6.9652 -1.8637,8.6685 0,3.8067 -2.1235,13.1425 -4.6737,20.5473 -1.0494,3.0467 -1.8669,7.0801 -1.817,8.9628 0.1099,4.1414 -1.3537,10.6644 -3.8911,17.3401 -1.0352,2.7237 -1.8824,6.8763 -1.8826,9.228 -3e-4,2.3517 -0.6519,6.5973 -1.4479,9.4347 -0.7961,2.8372 -1.8208,9.8289 -2.2772,15.5368 -0.5465,6.8344 -1.6281,12.6331 -3.1677,16.9823 -1.2858,3.6323 -2.5647,9.5761 -2.8418,13.2084 -0.5189,6.8002 -4.3297,18.9478 -7.2513,23.1148 -0.9096,1.2972 -1.9694,4.2691 -2.355,6.6042 -0.7859,4.7582 -4.934,16.9713 -6.2325,18.3503 -0.4642,0.493 -0.844,2.0929 -0.844,3.5553 0,5.5174 -4.1382,18.4257 -8.2514,25.7392 -0.5838,1.0378 -1.934,5.3859 -3.0006,9.6624 -1.7274,6.9259 -5.1924,15.9405 -6.6213,17.2261 -1.4555,1.3097 -4.078,7.1743 -5.2915,11.8332 -0.7506,2.8816 -2.2139,6.9969 -3.2519,9.1452 -1.0379,2.1483 -1.8872,4.8955 -1.8872,6.1049 0,3.7246 -3.7213,16.323 -6.6071,22.3681 -1.5075,3.1577 -3.6337,9.1375 -4.7253,13.2888 -1.9016,7.2327 -3.8676,11.9675 -8.8143,21.2278 -1.2474,2.3351 -3.1638,7.2332 -4.2586,10.8847 -1.0951,3.6515 -3.1654,8.534 -4.6011,10.8498 -3.3948,5.4763 -4.2987,7.5736 -6.7091,15.5671 -1.1013,3.6515 -3.1768,8.5339 -4.6123,10.8498 -3.4023,5.4882 -4.296,7.5662 -6.75,15.6936 -2.0287,6.7188 -9.1704,18.8616 -13.1811,22.4114 -1.1288,0.9992 -4.0332,5.8817 -6.4542,10.8498 -3.723,7.6402 -5.6827,10.3061 -12.7086,17.2884 -4.5688,4.5404 -8.9155,8.2553 -9.6595,8.2553 -0.7438,0 -2.7399,2.4411 -4.4358,5.4249 -3.2393,5.6993 -17.8452,20.992 -20.0492,20.992 -1.3145,0 -6.2532,6.7105 -6.2532,8.4964 0,1.2768 -16.6223,17.9205 -17.8975,17.9205 -1.4029,0 -8.5194,6.6244 -8.5194,7.9304 0,1.7561 -11.6283,14.0251 -16.164,17.0548 -6.0325,4.0292 -8.3107,6.1799 -10.9803,10.366 -5.8325,9.146 -19.297,20.278 -27.9687,23.1239 -2.032,0.6668 -5.4285,2.7861 -7.5477,4.7094 -5.4634,4.9583 -14.5326,10.8592 -18.8692,12.2772 -2.032,0.6645 -5.4284,2.7818 -7.5477,4.7051 -5.2833,4.7949 -14.3093,10.6826 -19.4203,12.6678 -2.3351,0.9071 -5.7315,3.0464 -7.5477,4.7541 -5.1127,4.8072 -14.0469,10.4105 -20.2844,12.7219 -3.1134,1.1537 -6.5098,2.8712 -7.5476,3.8165 -5.7108,5.2023 -19.4294,12.3342 -26.1541,13.5969 -5.5017,1.0331 -8.3706,2.0524 -15.8231,5.6227 -4.4068,2.111 -9.7477,5.4377 -11.8685,7.3926 -4.903,4.5195 -13.5136,9.7167 -19.2612,11.6257 -2.4547,0.8154 -6.1163,2.8479 -8.1369,4.5169 -5.3873,4.45 -8.782,6.6579 -13.8394,9.0012 -2.4809,1.1496 -7.5965,4.9475 -11.3677,8.4398 -3.7714,3.4923 -8.959,7.3942 -11.528,8.671 -2.569,1.2767 -8.492,5.9617 -13.1621,10.4113 -5.8464,5.5702 -10.4562,9.0347 -14.8001,11.1231 -3.4698,1.668 -6.6949,3.0329 -7.1669,3.0329 -1.6717,0 -6.3871,2.8594 -10.1004,6.1249 -2.0699,1.8203 -4.2988,3.3096 -4.9531,3.3096 -0.6543,0 -1.1897,0.3245 -1.1897,0.721 0,0.91 -6.5701,3.7866 -12.7367,5.5766 -2.5945,0.7531 -6.021,1.767 -7.6146,2.2531 -1.5935,0.4862 -4.222,0.8839 -5.841,0.8839 -1.619,0 -3.1566,0.3448 -3.417,0.7661 -0.4093,0.6623 -4.8053,2.1755 -17.1589,5.9066 -1.5935,0.4812 -3.955,0.875 -5.2477,0.875 -1.2927,0 -4.1081,0.8493 -6.2563,1.8872 -2.1483,1.038 -6.1552,2.4844 -8.9043,3.2142 -6.8881,1.8288 -8.2211,2.3927 -12.5459,5.3075 -3.4106,2.2986 -7.5436,3.9486 -18.8692,7.5331 -2.0756,0.657 -5.472,2.3202 -7.5476,3.6963 -2.0757,1.376 -4.9788,3.022 -6.4514,3.6578 -4.9373,2.1317 -16.589,4.8947 -20.6557,4.8981 -5.2884,0 -16.6728,4.356 -24.174,9.2397 -3.2971,2.1469 -8.3652,4.7902 -11.2623,5.8741 -2.8972,1.0839 -7.8415,3.9191 -10.9873,6.3002 -6.9999,5.2983 -15.0485,9.1686 -23.174,11.1438 -3.3729,0.8198 -9.3167,2.9365 -13.2084,4.7038 -8.3416,3.7879 -20.1453,7.0776 -25.3947,7.0776 -2.0514,0 -4.8938,0.4426 -6.3165,0.9835 -4.1135,1.5639 -16.1981,4.6773 -18.1549,4.6773 -0.9815,0 -3.6693,0.8338 -5.9731,1.8529 -8.0382,3.5557 -15.4887,5.057 -29.0722,5.8583 -7.5241,0.4441 -19.624,1.2431 -26.8887,1.776 -7.2646,0.5327 -17.6663,0.9915 -23.1147,1.0195 -5.4485,0.028 -11.6046,0.072 -13.6802,0.098 -12.0878,0.1529 -22.0559,0.1139 -24.5299,-0.096 -3.1727,-0.2693 -21.91712,1.3472 -26.66433,2.2995 -1.69285,0.3395 -3.30994,0.993 -3.59373,1.452 -0.75836,1.2272 -21.51313,1.0482 -22.75753,-0.1961 -0.74551,-0.7455 -1.56405,-0.7455 -2.95705,0 -2.71925,1.4553 -22.10716,1.3527 -23.58468,-0.1249 -0.91195,-0.9119 -1.54598,-0.9119 -3.00627,0 -2.52791,1.5788 -21.8319,1.5788 -23.41061,0 -0.91196,-0.9119 -1.54599,-0.9119 -3.00627,0 -2.2865,1.4317 -22.62985,1.6225 -22.62985,0.2144 z"
       id="path18" />
  </g>
</svg>
